<svg width="1440" height="669" viewBox="0 0 1440 669" fill="none" xmlns="http://www.w3.org/2000/svg">
<path d="M0 116C0 116 115.471 195 206.913 195C298.354 195 413.825 116 413.825 116C413.825 116 530.64 41.761 614.027 40C702.345 38.1348 827.651 116 827.651 116C827.651 116 943.121 194 1034.56 194C1126 194 1241.48 116 1241.48 116L1440 3" stroke="#99ABBC" stroke-width="6" stroke-dasharray="16 8"/>
<line x1="388.5" y1="128" x2="388.5" y2="450" stroke="#99ABBC"/>
<g opacity="0.8">
<circle cx="388" cy="129" r="18.3077" stroke="#BABFCB" stroke-opacity="0.3" stroke-width="14"/>
<circle cx="388" cy="129" r="30.1538" stroke="#BABFCB" stroke-opacity="0.2" stroke-width="14"/>
<circle cx="388" cy="129" r="42" stroke="#BABFCB" stroke-opacity="0.1" stroke-width="14"/>
<circle cx="388" cy="129" r="7" stroke="#BABFCB" stroke-opacity="0.4" stroke-width="11.8462"/>
</g>
<circle cx="388.5" cy="129.5" r="13.5" fill="#F1F7F8" stroke="#99ABBC" stroke-width="4"/>
<circle cx="388.5" cy="129.5" r="6.5" fill="#00D6B3"/>
<g filter="url(#filter0_d)">
<rect x="224" y="420" width="328" height="209" rx="16" fill="white"/>
</g>
<path d="M253.602 523.281C257.34 523.281 259.848 521.418 260.621 518.078H258.488C257.879 520.141 256.098 521.336 253.613 521.336C250.273 521.336 248.152 518.688 248.152 514.539C248.152 510.426 250.297 507.754 253.602 507.754C256.016 507.754 257.949 509.207 258.488 511.422H260.621C260.082 508.047 257.281 505.809 253.602 505.809C248.973 505.809 245.984 509.23 245.984 514.539C245.984 519.895 248.938 523.281 253.602 523.281ZM267.852 523.211C271.215 523.211 273.488 520.785 273.488 516.906C273.488 513.016 271.215 510.602 267.852 510.602C264.477 510.602 262.203 513.016 262.203 516.906C262.203 520.785 264.477 523.211 267.852 523.211ZM267.852 521.418C265.695 521.418 264.277 519.777 264.277 516.906C264.277 514.035 265.695 512.395 267.852 512.395C270.008 512.395 271.414 514.035 271.414 516.906C271.414 519.777 270.008 521.418 267.852 521.418ZM275.551 523H277.59V515.828C277.59 513.766 278.844 512.406 280.766 512.406C282.641 512.406 283.566 513.484 283.566 515.453V523H285.605V515.09C285.605 512.324 284.059 510.602 281.387 510.602C279.5 510.602 278.199 511.445 277.52 512.758H277.473V510.812H275.551V523ZM288.207 523H290.246V515.828C290.246 513.766 291.5 512.406 293.422 512.406C295.297 512.406 296.223 513.484 296.223 515.453V523H298.262V515.09C298.262 512.324 296.715 510.602 294.043 510.602C292.156 510.602 290.855 511.445 290.176 512.758H290.129V510.812H288.207V523ZM308.949 519.508C308.609 520.656 307.473 521.441 305.926 521.441C303.734 521.441 302.363 519.906 302.363 517.574V517.457H311.105V516.684C311.105 512.992 309.078 510.602 305.785 510.602C302.422 510.602 300.266 513.168 300.266 516.953C300.266 520.785 302.387 523.211 305.879 523.211C308.539 523.211 310.602 521.641 310.953 519.508H308.949ZM305.75 512.371C307.672 512.371 308.949 513.824 308.996 515.863H302.375C302.504 513.836 303.84 512.371 305.75 512.371ZM323.293 514.809C323.035 512.617 321.219 510.602 318.172 510.602C314.809 510.602 312.57 513.062 312.57 516.906C312.57 520.832 314.82 523.211 318.195 523.211C320.961 523.211 323 521.5 323.316 519.074H321.312C320.961 520.539 319.871 521.418 318.207 521.418C316.098 521.418 314.645 519.742 314.645 516.906C314.645 514.141 316.074 512.395 318.184 512.395C319.977 512.395 321.008 513.484 321.301 514.809H323.293ZM325.848 507.871V510.812H324.031V512.488H325.848V519.836C325.848 522.18 326.715 523.094 328.953 523.094C329.434 523.094 329.996 523.059 330.242 523V521.289C330.102 521.312 329.633 521.348 329.398 521.348C328.355 521.348 327.887 520.844 327.887 519.73V512.488H330.254V510.812H327.887V507.871H325.848ZM352.859 510.812H350.844L348.406 520.727H348.359L345.594 510.812H343.625L340.871 520.727H340.824L338.387 510.812H336.359L339.77 523H341.844L344.586 513.566H344.633L347.387 523H349.461L352.859 510.812ZM355.66 508.645C356.375 508.645 356.938 508.07 356.938 507.367C356.938 506.652 356.375 506.09 355.66 506.09C354.957 506.09 354.383 506.652 354.383 507.367C354.383 508.07 354.957 508.645 355.66 508.645ZM354.641 523H356.68V510.812H354.641V523ZM360.09 507.871V510.812H358.273V512.488H360.09V519.836C360.09 522.18 360.957 523.094 363.195 523.094C363.676 523.094 364.238 523.059 364.484 523V521.289C364.344 521.312 363.875 521.348 363.641 521.348C362.598 521.348 362.129 520.844 362.129 519.73V512.488H364.496V510.812H362.129V507.871H360.09ZM366.781 523H368.82V515.898C368.82 513.789 370.074 512.406 372.102 512.406C374.012 512.406 374.984 513.566 374.984 515.5V523H377.023V515.125C377.023 512.406 375.406 510.602 372.734 510.602C370.883 510.602 369.547 511.398 368.867 512.758H368.82V506.09H366.781V523ZM384.535 523H386.574V515.828C386.574 513.766 387.828 512.406 389.75 512.406C391.625 512.406 392.551 513.484 392.551 515.453V523H394.59V515.09C394.59 512.324 393.043 510.602 390.371 510.602C388.484 510.602 387.184 511.445 386.504 512.758H386.457V510.812H384.535V523ZM400.754 523.211C402.395 523.211 403.941 522.297 404.668 520.902H404.715V523H406.648V514.574C406.648 512.148 404.844 510.602 401.984 510.602C399.102 510.602 397.297 512.219 397.156 514.328H399.125C399.383 513.133 400.367 512.395 401.938 512.395C403.625 512.395 404.609 513.285 404.609 514.773V515.793L401.117 515.992C398.305 516.156 396.699 517.469 396.699 519.555C396.699 521.746 398.328 523.211 400.754 523.211ZM401.211 521.477C399.746 521.477 398.773 520.715 398.773 519.555C398.773 518.406 399.711 517.68 401.352 517.574L404.609 517.375V518.371C404.609 520.129 403.133 521.477 401.211 521.477ZM409.895 507.871V510.812H408.078V512.488H409.895V519.836C409.895 522.18 410.762 523.094 413 523.094C413.48 523.094 414.043 523.059 414.289 523V521.289C414.148 521.312 413.68 521.348 413.445 521.348C412.402 521.348 411.934 520.844 411.934 519.73V512.488H414.301V510.812H411.934V507.871H409.895ZM417.605 508.645C418.32 508.645 418.883 508.07 418.883 507.367C418.883 506.652 418.32 506.09 417.605 506.09C416.902 506.09 416.328 506.652 416.328 507.367C416.328 508.07 416.902 508.645 417.605 508.645ZM416.586 523H418.625V510.812H416.586V523ZM426.43 523.211C429.793 523.211 432.066 520.785 432.066 516.906C432.066 513.016 429.793 510.602 426.43 510.602C423.055 510.602 420.781 513.016 420.781 516.906C420.781 520.785 423.055 523.211 426.43 523.211ZM426.43 521.418C424.273 521.418 422.855 519.777 422.855 516.906C422.855 514.035 424.273 512.395 426.43 512.395C428.586 512.395 429.992 514.035 429.992 516.906C429.992 519.777 428.586 521.418 426.43 521.418ZM434.129 523H436.168V515.828C436.168 513.766 437.422 512.406 439.344 512.406C441.219 512.406 442.145 513.484 442.145 515.453V523H444.184V515.09C444.184 512.324 442.637 510.602 439.965 510.602C438.078 510.602 436.777 511.445 436.098 512.758H436.051V510.812H434.129V523ZM450.348 523.211C451.988 523.211 453.535 522.297 454.262 520.902H454.309V523H456.242V514.574C456.242 512.148 454.438 510.602 451.578 510.602C448.695 510.602 446.891 512.219 446.75 514.328H448.719C448.977 513.133 449.961 512.395 451.531 512.395C453.219 512.395 454.203 513.285 454.203 514.773V515.793L450.711 515.992C447.898 516.156 446.293 517.469 446.293 519.555C446.293 521.746 447.922 523.211 450.348 523.211ZM450.805 521.477C449.34 521.477 448.367 520.715 448.367 519.555C448.367 518.406 449.305 517.68 450.945 517.574L454.203 517.375V518.371C454.203 520.129 452.727 521.477 450.805 521.477ZM458.938 523H460.977V506.09H458.938V523ZM246.113 544.176C246.113 545.934 247.227 547 249.523 547.551L251.457 548.02C252.852 548.359 253.332 548.863 253.332 549.742C253.332 550.844 252.312 551.547 250.66 551.547C249.008 551.547 248.07 550.879 247.824 549.484H245.785C246.02 551.77 247.801 553.211 250.66 553.211C253.379 553.211 255.383 551.711 255.383 549.59C255.383 547.844 254.492 546.883 252.031 546.285L250.098 545.816C248.738 545.488 248.117 544.914 248.117 544.07C248.117 543.004 249.102 542.266 250.59 542.266C252.09 542.266 253.027 543.051 253.18 544.328H255.125C255.043 542.172 253.262 540.602 250.59 540.602C247.953 540.602 246.113 542.09 246.113 544.176ZM263.422 540.602C261.652 540.602 260.234 541.504 259.484 542.875H259.438V540.812H257.504V557.066H259.543V551.02H259.59C260.316 552.355 261.723 553.211 263.469 553.211C266.539 553.211 268.637 550.727 268.637 546.906C268.637 543.086 266.527 540.602 263.422 540.602ZM263.023 551.418C260.938 551.418 259.531 549.625 259.531 546.906C259.531 544.199 260.938 542.395 263.023 542.395C265.191 542.395 266.551 544.152 266.551 546.906C266.551 549.672 265.191 551.418 263.023 551.418ZM278.785 549.508C278.445 550.656 277.309 551.441 275.762 551.441C273.57 551.441 272.199 549.906 272.199 547.574V547.457H280.941V546.684C280.941 542.992 278.914 540.602 275.621 540.602C272.258 540.602 270.102 543.168 270.102 546.953C270.102 550.785 272.223 553.211 275.715 553.211C278.375 553.211 280.438 551.641 280.789 549.508H278.785ZM275.586 542.371C277.508 542.371 278.785 543.824 278.832 545.863H272.211C272.34 543.836 273.676 542.371 275.586 542.371ZM293.129 544.809C292.871 542.617 291.055 540.602 288.008 540.602C284.645 540.602 282.406 543.062 282.406 546.906C282.406 550.832 284.656 553.211 288.031 553.211C290.797 553.211 292.836 551.5 293.152 549.074H291.148C290.797 550.539 289.707 551.418 288.043 551.418C285.934 551.418 284.48 549.742 284.48 546.906C284.48 544.141 285.91 542.395 288.02 542.395C289.812 542.395 290.844 543.484 291.137 544.809H293.129ZM296.152 538.645C296.867 538.645 297.43 538.07 297.43 537.367C297.43 536.652 296.867 536.09 296.152 536.09C295.449 536.09 294.875 536.652 294.875 537.367C294.875 538.07 295.449 538.645 296.152 538.645ZM295.133 553H297.172V540.812H295.133V553ZM299.926 553H301.965V545.359C301.965 543.672 303.137 542.406 304.754 542.406C306.266 542.406 307.25 543.367 307.25 544.832V553H309.289V545.254C309.289 543.602 310.426 542.406 312.043 542.406C313.648 542.406 314.574 543.391 314.574 545.055V553H316.613V544.586C316.613 542.172 315.055 540.602 312.641 540.602C310.93 540.602 309.5 541.469 308.82 542.922H308.773C308.246 541.445 307.016 540.602 305.352 540.602C303.711 540.602 302.469 541.469 301.895 542.758H301.848V540.812H299.926V553ZM327.301 549.508C326.961 550.656 325.824 551.441 324.277 551.441C322.086 551.441 320.715 549.906 320.715 547.574V547.457H329.457V546.684C329.457 542.992 327.43 540.602 324.137 540.602C320.773 540.602 318.617 543.168 318.617 546.953C318.617 550.785 320.738 553.211 324.23 553.211C326.891 553.211 328.953 551.641 329.305 549.508H327.301ZM324.102 542.371C326.023 542.371 327.301 543.824 327.348 545.863H320.727C320.855 543.836 322.191 542.371 324.102 542.371ZM331.52 553H333.559V545.828C333.559 543.766 334.812 542.406 336.734 542.406C338.609 542.406 339.535 543.484 339.535 545.453V553H341.574V545.09C341.574 542.324 340.027 540.602 337.355 540.602C335.469 540.602 334.168 541.445 333.488 542.758H333.441V540.812H331.52V553ZM359.223 544.809C358.965 542.617 357.148 540.602 354.102 540.602C350.738 540.602 348.5 543.062 348.5 546.906C348.5 550.832 350.75 553.211 354.125 553.211C356.891 553.211 358.93 551.5 359.246 549.074H357.242C356.891 550.539 355.801 551.418 354.137 551.418C352.027 551.418 350.574 549.742 350.574 546.906C350.574 544.141 352.004 542.395 354.113 542.395C355.906 542.395 356.938 543.484 357.23 544.809H359.223ZM366.172 553.211C369.535 553.211 371.809 550.785 371.809 546.906C371.809 543.016 369.535 540.602 366.172 540.602C362.797 540.602 360.523 543.016 360.523 546.906C360.523 550.785 362.797 553.211 366.172 553.211ZM366.172 551.418C364.016 551.418 362.598 549.777 362.598 546.906C362.598 544.035 364.016 542.395 366.172 542.395C368.328 542.395 369.734 544.035 369.734 546.906C369.734 549.777 368.328 551.418 366.172 551.418ZM373.977 553H376.016V536.09H373.977V553ZM378.875 553H380.914V536.09H378.875V553ZM391.754 549.508C391.414 550.656 390.277 551.441 388.73 551.441C386.539 551.441 385.168 549.906 385.168 547.574V547.457H393.91V546.684C393.91 542.992 391.883 540.602 388.59 540.602C385.227 540.602 383.07 543.168 383.07 546.953C383.07 550.785 385.191 553.211 388.684 553.211C391.344 553.211 393.406 551.641 393.758 549.508H391.754ZM388.555 542.371C390.477 542.371 391.754 543.824 391.801 545.863H385.18C385.309 543.836 386.645 542.371 388.555 542.371ZM406.098 544.809C405.84 542.617 404.023 540.602 400.977 540.602C397.613 540.602 395.375 543.062 395.375 546.906C395.375 550.832 397.625 553.211 401 553.211C403.766 553.211 405.805 551.5 406.121 549.074H404.117C403.766 550.539 402.676 551.418 401.012 551.418C398.902 551.418 397.449 549.742 397.449 546.906C397.449 544.141 398.879 542.395 400.988 542.395C402.781 542.395 403.812 543.484 404.105 544.809H406.098ZM408.652 537.871V540.812H406.836V542.488H408.652V549.836C408.652 552.18 409.52 553.094 411.758 553.094C412.238 553.094 412.801 553.059 413.047 553V551.289C412.906 551.312 412.438 551.348 412.203 551.348C411.16 551.348 410.691 550.844 410.691 549.73V542.488H413.059V540.812H410.691V537.871H408.652ZM416.363 538.645C417.078 538.645 417.641 538.07 417.641 537.367C417.641 536.652 417.078 536.09 416.363 536.09C415.66 536.09 415.086 536.652 415.086 537.367C415.086 538.07 415.66 538.645 416.363 538.645ZM415.344 553H417.383V540.812H415.344V553ZM425.188 553.211C428.551 553.211 430.824 550.785 430.824 546.906C430.824 543.016 428.551 540.602 425.188 540.602C421.812 540.602 419.539 543.016 419.539 546.906C419.539 550.785 421.812 553.211 425.188 553.211ZM425.188 551.418C423.031 551.418 421.613 549.777 421.613 546.906C421.613 544.035 423.031 542.395 425.188 542.395C427.344 542.395 428.75 544.035 428.75 546.906C428.75 549.777 427.344 551.418 425.188 551.418ZM432.887 553H434.926V545.828C434.926 543.766 436.18 542.406 438.102 542.406C439.977 542.406 440.902 543.484 440.902 545.453V553H442.941V545.09C442.941 542.324 441.395 540.602 438.723 540.602C436.836 540.602 435.535 541.445 434.855 542.758H434.809V540.812H432.887V553ZM246.113 574.176C246.113 575.934 247.227 577 249.523 577.551L251.457 578.02C252.852 578.359 253.332 578.863 253.332 579.742C253.332 580.844 252.312 581.547 250.66 581.547C249.008 581.547 248.07 580.879 247.824 579.484H245.785C246.02 581.77 247.801 583.211 250.66 583.211C253.379 583.211 255.383 581.711 255.383 579.59C255.383 577.844 254.492 576.883 252.031 576.285L250.098 575.816C248.738 575.488 248.117 574.914 248.117 574.07C248.117 573.004 249.102 572.266 250.59 572.266C252.09 572.266 253.027 573.051 253.18 574.328H255.125C255.043 572.172 253.262 570.602 250.59 570.602C247.953 570.602 246.113 572.09 246.113 574.176ZM265.59 579.508C265.25 580.656 264.113 581.441 262.566 581.441C260.375 581.441 259.004 579.906 259.004 577.574V577.457H267.746V576.684C267.746 572.992 265.719 570.602 262.426 570.602C259.062 570.602 256.906 573.168 256.906 576.953C256.906 580.785 259.027 583.211 262.52 583.211C265.18 583.211 267.242 581.641 267.594 579.508H265.59ZM262.391 572.371C264.312 572.371 265.59 573.824 265.637 575.863H259.016C259.145 573.836 260.48 572.371 262.391 572.371ZM269.809 583H271.848V575.406C271.848 573.684 272.879 572.547 274.461 572.547C274.953 572.547 275.387 572.605 275.551 572.664V570.684C275.387 570.66 275.082 570.602 274.73 570.602C273.301 570.602 272.176 571.457 271.777 572.805H271.73V570.812H269.809V583ZM287.211 570.812H285.09L281.715 580.832H281.668L278.305 570.812H276.16L280.648 583H282.734L287.211 570.812ZM289.941 568.645C290.656 568.645 291.219 568.07 291.219 567.367C291.219 566.652 290.656 566.09 289.941 566.09C289.238 566.09 288.664 566.652 288.664 567.367C288.664 568.07 289.238 568.645 289.941 568.645ZM288.922 583H290.961V570.812H288.922V583ZM303.84 574.809C303.582 572.617 301.766 570.602 298.719 570.602C295.355 570.602 293.117 573.062 293.117 576.906C293.117 580.832 295.367 583.211 298.742 583.211C301.508 583.211 303.547 581.5 303.863 579.074H301.859C301.508 580.539 300.418 581.418 298.754 581.418C296.645 581.418 295.191 579.742 295.191 576.906C295.191 574.141 296.621 572.395 298.73 572.395C300.523 572.395 301.555 573.484 301.848 574.809H303.84ZM313.824 579.508C313.484 580.656 312.348 581.441 310.801 581.441C308.609 581.441 307.238 579.906 307.238 577.574V577.457H315.98V576.684C315.98 572.992 313.953 570.602 310.66 570.602C307.297 570.602 305.141 573.168 305.141 576.953C305.141 580.785 307.262 583.211 310.754 583.211C313.414 583.211 315.477 581.641 315.828 579.508H313.824ZM310.625 572.371C312.547 572.371 313.824 573.824 313.871 575.863H307.25C307.379 573.836 308.715 572.371 310.625 572.371ZM317.832 574.176C317.832 575.934 318.945 577 321.242 577.551L323.176 578.02C324.57 578.359 325.051 578.863 325.051 579.742C325.051 580.844 324.031 581.547 322.379 581.547C320.727 581.547 319.789 580.879 319.543 579.484H317.504C317.738 581.77 319.52 583.211 322.379 583.211C325.098 583.211 327.102 581.711 327.102 579.59C327.102 577.844 326.211 576.883 323.75 576.285L321.816 575.816C320.457 575.488 319.836 574.914 319.836 574.07C319.836 573.004 320.82 572.266 322.309 572.266C323.809 572.266 324.746 573.051 324.898 574.328H326.844C326.762 572.172 324.98 570.602 322.309 570.602C319.672 570.602 317.832 572.09 317.832 574.176Z" fill="#425466"/>
<path d="M224 436C224 427.163 231.163 420 240 420H536C544.837 420 552 427.163 552 436V480H224V436Z" fill="#4FC9EF"/>
<path d="M251.021 456C253.719 456 255.318 454.673 255.318 452.44C255.318 450.753 254.211 449.54 252.488 449.32V449.25C253.71 449.03 254.677 447.8 254.677 446.481C254.677 444.583 253.209 443.317 251.038 443.317H246.23V456H251.021ZM247.812 444.715H250.678C252.216 444.715 253.077 445.409 253.077 446.666C253.077 448.037 252.058 448.784 250.186 448.784H247.812V444.715ZM247.812 454.603V450.146H250.634C252.655 450.146 253.692 450.894 253.692 452.361C253.692 453.829 252.69 454.603 250.783 454.603H247.812ZM264.38 446.859H262.851V452.229C262.851 453.785 261.954 454.805 260.469 454.805C259.054 454.805 258.359 454.005 258.359 452.52V446.859H256.83V452.792C256.83 454.866 257.999 456.158 259.994 456.158C261.4 456.158 262.35 455.569 262.895 454.515H262.93V456H264.38V446.859ZM267.21 445.233C267.746 445.233 268.168 444.803 268.168 444.275C268.168 443.739 267.746 443.317 267.21 443.317C266.683 443.317 266.252 443.739 266.252 444.275C266.252 444.803 266.683 445.233 267.21 445.233ZM266.445 456H267.975V446.859H266.445V456ZM270.119 456H271.648V443.317H270.119V456ZM277.177 456.158C278.495 456.158 279.541 455.508 280.13 454.453H280.156V456H281.615V443.317H280.086V448.345H280.051C279.506 447.343 278.451 446.701 277.142 446.701C274.839 446.701 273.266 448.564 273.266 451.43C273.266 454.295 274.848 456.158 277.177 456.158ZM277.467 448.046C279.04 448.046 280.095 449.391 280.095 451.43C280.095 453.478 279.04 454.813 277.467 454.813C275.85 454.813 274.83 453.504 274.83 451.43C274.83 449.364 275.85 448.046 277.467 448.046ZM288.137 459.419C289.789 459.419 290.545 458.777 291.327 456.642L294.922 446.859H293.313L290.782 454.471H290.756L288.225 446.859H286.59L289.965 456.009L289.754 456.65C289.402 457.714 288.928 458.127 288.075 458.127C287.882 458.127 287.645 458.118 287.478 458.083V459.366C287.645 459.401 287.952 459.419 288.137 459.419ZM299.65 456.158C302.173 456.158 303.878 454.339 303.878 451.43C303.878 448.512 302.173 446.701 299.65 446.701C297.119 446.701 295.414 448.512 295.414 451.43C295.414 454.339 297.119 456.158 299.65 456.158ZM299.65 454.813C298.033 454.813 296.97 453.583 296.97 451.43C296.97 449.276 298.033 448.046 299.65 448.046C301.268 448.046 302.322 449.276 302.322 451.43C302.322 453.583 301.268 454.813 299.65 454.813ZM312.931 446.859H311.401V452.229C311.401 453.785 310.505 454.805 309.02 454.805C307.604 454.805 306.91 454.005 306.91 452.52V446.859H305.381V452.792C305.381 454.866 306.55 456.158 308.545 456.158C309.951 456.158 310.9 455.569 311.445 454.515H311.48V456H312.931V446.859ZM314.917 456H316.446V450.305C316.446 449.013 317.22 448.16 318.406 448.16C318.775 448.16 319.101 448.204 319.224 448.248V446.763C319.101 446.745 318.872 446.701 318.608 446.701C317.536 446.701 316.692 447.343 316.394 448.354H316.358V446.859H314.917V456ZM324.655 444.653V446.859H323.293V448.116H324.655V453.627C324.655 455.385 325.306 456.07 326.984 456.07C327.345 456.07 327.767 456.044 327.951 456V454.717C327.846 454.734 327.494 454.761 327.318 454.761C326.536 454.761 326.185 454.383 326.185 453.548V448.116H327.96V446.859H326.185V444.653H324.655ZM335.396 453.381C335.141 454.242 334.288 454.831 333.128 454.831C331.484 454.831 330.456 453.68 330.456 451.931V451.843H337.013V451.263C337.013 448.494 335.492 446.701 333.022 446.701C330.5 446.701 328.883 448.626 328.883 451.465C328.883 454.339 330.474 456.158 333.093 456.158C335.088 456.158 336.635 454.98 336.898 453.381H335.396ZM332.996 448.028C334.438 448.028 335.396 449.118 335.431 450.647H330.465C330.562 449.127 331.563 448.028 332.996 448.028ZM341.231 456.158C342.462 456.158 343.622 455.473 344.167 454.427H344.202V456H345.652V449.681C345.652 447.861 344.299 446.701 342.154 446.701C339.992 446.701 338.639 447.914 338.533 449.496H340.01C340.203 448.6 340.941 448.046 342.119 448.046C343.385 448.046 344.123 448.714 344.123 449.83V450.595L341.504 450.744C339.395 450.867 338.19 451.852 338.19 453.416C338.19 455.06 339.412 456.158 341.231 456.158ZM341.574 454.857C340.476 454.857 339.746 454.286 339.746 453.416C339.746 452.555 340.449 452.01 341.68 451.931L344.123 451.781V452.528C344.123 453.847 343.016 454.857 341.574 454.857ZM347.595 456H349.124V450.27C349.124 449.004 350.003 448.055 351.216 448.055C352.35 448.055 353.088 448.775 353.088 449.874V456H354.617V450.19C354.617 448.951 355.47 448.055 356.683 448.055C357.887 448.055 358.581 448.793 358.581 450.041V456H360.11V449.689C360.11 447.879 358.941 446.701 357.131 446.701C355.848 446.701 354.775 447.352 354.266 448.441H354.23C353.835 447.334 352.912 446.701 351.664 446.701C350.434 446.701 349.502 447.352 349.071 448.318H349.036V446.859H347.595V456Z" fill="white"/>
<line x1="710.5" y1="70" x2="710.5" y2="168" stroke="#99ABBC"/>
<g opacity="0.8">
<circle cx="710" cy="59" r="18.3077" stroke="#BABFCB" stroke-opacity="0.3" stroke-width="14"/>
<circle cx="710" cy="59" r="30.1538" stroke="#BABFCB" stroke-opacity="0.2" stroke-width="14"/>
<circle cx="710" cy="59" r="42" stroke="#BABFCB" stroke-opacity="0.1" stroke-width="14"/>
<circle cx="710" cy="59" r="7" stroke="#BABFCB" stroke-opacity="0.4" stroke-width="11.8462"/>
</g>
<circle cx="710.5" cy="59.5" r="13.5" fill="#F1F7F8" stroke="#99ABBC" stroke-width="4"/>
<circle cx="710.5" cy="59.5" r="6.5" fill="#00D6B3"/>
<g filter="url(#filter1_d)">
<rect x="545" y="155" width="328" height="209" rx="16" fill="white"/>
</g>
<path d="M569.75 242.309H573.793L577.414 249H579.887L575.973 241.98C578.094 241.312 579.371 239.484 579.371 237.129C579.371 234.082 577.238 232.09 573.98 232.09H567.641V249H569.75V242.309ZM569.75 233.965H573.699C575.879 233.965 577.191 235.172 577.191 237.199C577.191 239.273 575.961 240.445 573.793 240.445H569.75V233.965ZM589.801 245.508C589.461 246.656 588.324 247.441 586.777 247.441C584.586 247.441 583.215 245.906 583.215 243.574V243.457H591.957V242.684C591.957 238.992 589.93 236.602 586.637 236.602C583.273 236.602 581.117 239.168 581.117 242.953C581.117 246.785 583.238 249.211 586.73 249.211C589.391 249.211 591.453 247.641 591.805 245.508H589.801ZM586.602 238.371C588.523 238.371 589.801 239.824 589.848 241.863H583.227C583.355 239.836 584.691 238.371 586.602 238.371ZM594.125 249H596.164V232.09H594.125V249ZM607.004 245.508C606.664 246.656 605.527 247.441 603.98 247.441C601.789 247.441 600.418 245.906 600.418 243.574V243.457H609.16V242.684C609.16 238.992 607.133 236.602 603.84 236.602C600.477 236.602 598.32 239.168 598.32 242.953C598.32 246.785 600.441 249.211 603.934 249.211C606.594 249.211 608.656 247.641 609.008 245.508H607.004ZM603.805 238.371C605.727 238.371 607.004 239.824 607.051 241.863H600.43C600.559 239.836 601.895 238.371 603.805 238.371ZM614.785 249.211C616.426 249.211 617.973 248.297 618.699 246.902H618.746V249H620.68V240.574C620.68 238.148 618.875 236.602 616.016 236.602C613.133 236.602 611.328 238.219 611.188 240.328H613.156C613.414 239.133 614.398 238.395 615.969 238.395C617.656 238.395 618.641 239.285 618.641 240.773V241.793L615.148 241.992C612.336 242.156 610.73 243.469 610.73 245.555C610.73 247.746 612.359 249.211 614.785 249.211ZM615.242 247.477C613.777 247.477 612.805 246.715 612.805 245.555C612.805 244.406 613.742 243.68 615.383 243.574L618.641 243.375V244.371C618.641 246.129 617.164 247.477 615.242 247.477ZM623.059 240.176C623.059 241.934 624.172 243 626.469 243.551L628.402 244.02C629.797 244.359 630.277 244.863 630.277 245.742C630.277 246.844 629.258 247.547 627.605 247.547C625.953 247.547 625.016 246.879 624.77 245.484H622.73C622.965 247.77 624.746 249.211 627.605 249.211C630.324 249.211 632.328 247.711 632.328 245.59C632.328 243.844 631.438 242.883 628.977 242.285L627.043 241.816C625.684 241.488 625.062 240.914 625.062 240.07C625.062 239.004 626.047 238.266 627.535 238.266C629.035 238.266 629.973 239.051 630.125 240.328H632.07C631.988 238.172 630.207 236.602 627.535 236.602C624.898 236.602 623.059 238.09 623.059 240.176ZM642.535 245.508C642.195 246.656 641.059 247.441 639.512 247.441C637.32 247.441 635.949 245.906 635.949 243.574V243.457H644.691V242.684C644.691 238.992 642.664 236.602 639.371 236.602C636.008 236.602 633.852 239.168 633.852 242.953C633.852 246.785 635.973 249.211 639.465 249.211C642.125 249.211 644.188 247.641 644.539 245.508H642.535ZM639.336 238.371C641.258 238.371 642.535 239.824 642.582 241.863H635.961C636.09 239.836 637.426 238.371 639.336 238.371ZM656.727 249.211C660.09 249.211 662.363 246.785 662.363 242.906C662.363 239.016 660.09 236.602 656.727 236.602C653.352 236.602 651.078 239.016 651.078 242.906C651.078 246.785 653.352 249.211 656.727 249.211ZM656.727 247.418C654.57 247.418 653.152 245.777 653.152 242.906C653.152 240.035 654.57 238.395 656.727 238.395C658.883 238.395 660.289 240.035 660.289 242.906C660.289 245.777 658.883 247.418 656.727 247.418ZM664.426 249H666.465V241.406C666.465 239.684 667.496 238.547 669.078 238.547C669.57 238.547 670.004 238.605 670.168 238.664V236.684C670.004 236.66 669.699 236.602 669.348 236.602C667.918 236.602 666.793 237.457 666.395 238.805H666.348V236.812H664.426V249ZM675.863 249.211C677.621 249.211 679.016 248.344 679.801 246.938H679.836V249H681.781V232.09H679.742V238.793H679.695C678.969 237.457 677.562 236.602 675.816 236.602C672.746 236.602 670.648 239.086 670.648 242.906C670.648 246.727 672.758 249.211 675.863 249.211ZM676.25 238.395C678.348 238.395 679.754 240.188 679.754 242.906C679.754 245.637 678.348 247.418 676.25 247.418C674.094 247.418 672.734 245.672 672.734 242.906C672.734 240.152 674.094 238.395 676.25 238.395ZM692.621 245.508C692.281 246.656 691.145 247.441 689.598 247.441C687.406 247.441 686.035 245.906 686.035 243.574V243.457H694.777V242.684C694.777 238.992 692.75 236.602 689.457 236.602C686.094 236.602 683.938 239.168 683.938 242.953C683.938 246.785 686.059 249.211 689.551 249.211C692.211 249.211 694.273 247.641 694.625 245.508H692.621ZM689.422 238.371C691.344 238.371 692.621 239.824 692.668 241.863H686.047C686.176 239.836 687.512 238.371 689.422 238.371ZM696.84 249H698.879V241.406C698.879 239.684 699.91 238.547 701.492 238.547C701.984 238.547 702.418 238.605 702.582 238.664V236.684C702.418 236.66 702.113 236.602 701.762 236.602C700.332 236.602 699.207 237.457 698.809 238.805H698.762V236.812H696.84V249ZM704.035 240.176C704.035 241.934 705.148 243 707.445 243.551L709.379 244.02C710.773 244.359 711.254 244.863 711.254 245.742C711.254 246.844 710.234 247.547 708.582 247.547C706.93 247.547 705.992 246.879 705.746 245.484H703.707C703.941 247.77 705.723 249.211 708.582 249.211C711.301 249.211 713.305 247.711 713.305 245.59C713.305 243.844 712.414 242.883 709.953 242.285L708.02 241.816C706.66 241.488 706.039 240.914 706.039 240.07C706.039 239.004 707.023 238.266 708.512 238.266C710.012 238.266 710.949 239.051 711.102 240.328H713.047C712.965 238.172 711.184 236.602 708.512 236.602C705.875 236.602 704.035 238.09 704.035 240.176ZM723.91 249.211C725.551 249.211 727.098 248.297 727.824 246.902H727.871V249H729.805V240.574C729.805 238.148 728 236.602 725.141 236.602C722.258 236.602 720.453 238.219 720.312 240.328H722.281C722.539 239.133 723.523 238.395 725.094 238.395C726.781 238.395 727.766 239.285 727.766 240.773V241.793L724.273 241.992C721.461 242.156 719.855 243.469 719.855 245.555C719.855 247.746 721.484 249.211 723.91 249.211ZM724.367 247.477C722.902 247.477 721.93 246.715 721.93 245.555C721.93 244.406 722.867 243.68 724.508 243.574L727.766 243.375V244.371C727.766 246.129 726.289 247.477 724.367 247.477ZM742.402 236.812H740.363V243.973C740.363 246.047 739.168 247.406 737.188 247.406C735.301 247.406 734.375 246.34 734.375 244.359V236.812H732.336V244.723C732.336 247.488 733.895 249.211 736.555 249.211C738.43 249.211 739.695 248.426 740.422 247.02H740.469V249H742.402V236.812ZM745.707 233.871V236.812H743.891V238.488H745.707V245.836C745.707 248.18 746.574 249.094 748.812 249.094C749.293 249.094 749.855 249.059 750.102 249V247.289C749.961 247.312 749.492 247.348 749.258 247.348C748.215 247.348 747.746 246.844 747.746 245.73V238.488H750.113V236.812H747.746V233.871H745.707ZM756.992 249.211C760.355 249.211 762.629 246.785 762.629 242.906C762.629 239.016 760.355 236.602 756.992 236.602C753.617 236.602 751.344 239.016 751.344 242.906C751.344 246.785 753.617 249.211 756.992 249.211ZM756.992 247.418C754.836 247.418 753.418 245.777 753.418 242.906C753.418 240.035 754.836 238.395 756.992 238.395C759.148 238.395 760.555 240.035 760.555 242.906C760.555 245.777 759.148 247.418 756.992 247.418ZM764.691 249H766.73V241.359C766.73 239.672 767.902 238.406 769.52 238.406C771.031 238.406 772.016 239.367 772.016 240.832V249H774.055V241.254C774.055 239.602 775.191 238.406 776.809 238.406C778.414 238.406 779.34 239.391 779.34 241.055V249H781.379V240.586C781.379 238.172 779.82 236.602 777.406 236.602C775.695 236.602 774.266 237.469 773.586 238.922H773.539C773.012 237.445 771.781 236.602 770.117 236.602C768.477 236.602 767.234 237.469 766.66 238.758H766.613V236.812H764.691V249ZM787.543 249.211C789.184 249.211 790.73 248.297 791.457 246.902H791.504V249H793.438V240.574C793.438 238.148 791.633 236.602 788.773 236.602C785.891 236.602 784.086 238.219 783.945 240.328H785.914C786.172 239.133 787.156 238.395 788.727 238.395C790.414 238.395 791.398 239.285 791.398 240.773V241.793L787.906 241.992C785.094 242.156 783.488 243.469 783.488 245.555C783.488 247.746 785.117 249.211 787.543 249.211ZM788 247.477C786.535 247.477 785.562 246.715 785.562 245.555C785.562 244.406 786.5 243.68 788.141 243.574L791.398 243.375V244.371C791.398 246.129 789.922 247.477 788 247.477ZM796.684 233.871V236.812H794.867V238.488H796.684V245.836C796.684 248.18 797.551 249.094 799.789 249.094C800.27 249.094 800.832 249.059 801.078 249V247.289C800.938 247.312 800.469 247.348 800.234 247.348C799.191 247.348 798.723 246.844 798.723 245.73V238.488H801.09V236.812H798.723V233.871H796.684ZM804.395 234.645C805.109 234.645 805.672 234.07 805.672 233.367C805.672 232.652 805.109 232.09 804.395 232.09C803.691 232.09 803.117 232.652 803.117 233.367C803.117 234.07 803.691 234.645 804.395 234.645ZM803.375 249H805.414V236.812H803.375V249ZM818.293 240.809C818.035 238.617 816.219 236.602 813.172 236.602C809.809 236.602 807.57 239.062 807.57 242.906C807.57 246.832 809.82 249.211 813.195 249.211C815.961 249.211 818 247.5 818.316 245.074H816.312C815.961 246.539 814.871 247.418 813.207 247.418C811.098 247.418 809.645 245.742 809.645 242.906C809.645 240.141 811.074 238.395 813.184 238.395C814.977 238.395 816.008 239.484 816.301 240.809H818.293ZM823.754 249.211C825.395 249.211 826.941 248.297 827.668 246.902H827.715V249H829.648V240.574C829.648 238.148 827.844 236.602 824.984 236.602C822.102 236.602 820.297 238.219 820.156 240.328H822.125C822.383 239.133 823.367 238.395 824.938 238.395C826.625 238.395 827.609 239.285 827.609 240.773V241.793L824.117 241.992C821.305 242.156 819.699 243.469 819.699 245.555C819.699 247.746 821.328 249.211 823.754 249.211ZM824.211 247.477C822.746 247.477 821.773 246.715 821.773 245.555C821.773 244.406 822.711 243.68 824.352 243.574L827.609 243.375V244.371C827.609 246.129 826.133 247.477 824.211 247.477ZM832.344 249H834.383V232.09H832.344V249ZM837.242 249H839.281V232.09H837.242V249ZM843.055 253.559C845.258 253.559 846.266 252.703 847.309 249.855L852.102 236.812H849.957L846.582 246.961H846.547L843.172 236.812H840.992L845.492 249.012L845.211 249.867C844.742 251.285 844.109 251.836 842.973 251.836C842.715 251.836 842.398 251.824 842.176 251.777V253.488C842.398 253.535 842.809 253.559 843.055 253.559ZM567.98 263.871V266.812H566.164V268.488H567.98V275.836C567.98 278.18 568.848 279.094 571.086 279.094C571.566 279.094 572.129 279.059 572.375 279V277.289C572.234 277.312 571.766 277.348 571.531 277.348C570.488 277.348 570.02 276.844 570.02 275.73V268.488H572.387V266.812H570.02V263.871H567.98ZM579.266 279.211C582.629 279.211 584.902 276.785 584.902 272.906C584.902 269.016 582.629 266.602 579.266 266.602C575.891 266.602 573.617 269.016 573.617 272.906C573.617 276.785 575.891 279.211 579.266 279.211ZM579.266 277.418C577.109 277.418 575.691 275.777 575.691 272.906C575.691 270.035 577.109 268.395 579.266 268.395C581.422 268.395 582.828 270.035 582.828 272.906C582.828 275.777 581.422 277.418 579.266 277.418ZM592.543 263.871V266.812H590.727V268.488H592.543V275.836C592.543 278.18 593.41 279.094 595.648 279.094C596.129 279.094 596.691 279.059 596.938 279V277.289C596.797 277.312 596.328 277.348 596.094 277.348C595.051 277.348 594.582 276.844 594.582 275.73V268.488H596.949V266.812H594.582V263.871H592.543ZM599.234 279H601.273V271.898C601.273 269.789 602.527 268.406 604.555 268.406C606.465 268.406 607.438 269.566 607.438 271.5V279H609.477V271.125C609.477 268.406 607.859 266.602 605.188 266.602C603.336 266.602 602 267.398 601.32 268.758H601.273V262.09H599.234V279ZM620.152 275.508C619.812 276.656 618.676 277.441 617.129 277.441C614.938 277.441 613.566 275.906 613.566 273.574V273.457H622.309V272.684C622.309 268.992 620.281 266.602 616.988 266.602C613.625 266.602 611.469 269.168 611.469 272.953C611.469 276.785 613.59 279.211 617.082 279.211C619.742 279.211 621.805 277.641 622.156 275.508H620.152ZM616.953 268.371C618.875 268.371 620.152 269.824 620.199 271.863H613.578C613.707 269.836 615.043 268.371 616.953 268.371ZM629.293 279H631.332V271.828C631.332 269.766 632.586 268.406 634.508 268.406C636.383 268.406 637.309 269.484 637.309 271.453V279H639.348V271.09C639.348 268.324 637.801 266.602 635.129 266.602C633.242 266.602 631.941 267.445 631.262 268.758H631.215V266.812H629.293V279ZM650.035 275.508C649.695 276.656 648.559 277.441 647.012 277.441C644.82 277.441 643.449 275.906 643.449 273.574V273.457H652.191V272.684C652.191 268.992 650.164 266.602 646.871 266.602C643.508 266.602 641.352 269.168 641.352 272.953C641.352 276.785 643.473 279.211 646.965 279.211C649.625 279.211 651.688 277.641 652.039 275.508H650.035ZM646.836 268.371C648.758 268.371 650.035 269.824 650.082 271.863H643.461C643.59 269.836 644.926 268.371 646.836 268.371ZM657.816 279.211C659.457 279.211 661.004 278.297 661.73 276.902H661.777V279H663.711V270.574C663.711 268.148 661.906 266.602 659.047 266.602C656.164 266.602 654.359 268.219 654.219 270.328H656.188C656.445 269.133 657.43 268.395 659 268.395C660.688 268.395 661.672 269.285 661.672 270.773V271.793L658.18 271.992C655.367 272.156 653.762 273.469 653.762 275.555C653.762 277.746 655.391 279.211 657.816 279.211ZM658.273 277.477C656.809 277.477 655.836 276.715 655.836 275.555C655.836 274.406 656.773 273.68 658.414 273.574L661.672 273.375V274.371C661.672 276.129 660.195 277.477 658.273 277.477ZM666.301 279H668.34V271.406C668.34 269.684 669.371 268.547 670.953 268.547C671.445 268.547 671.879 268.605 672.043 268.664V266.684C671.879 266.66 671.574 266.602 671.223 266.602C669.793 266.602 668.668 267.457 668.27 268.805H668.223V266.812H666.301V279ZM681.207 275.508C680.867 276.656 679.73 277.441 678.184 277.441C675.992 277.441 674.621 275.906 674.621 273.574V273.457H683.363V272.684C683.363 268.992 681.336 266.602 678.043 266.602C674.68 266.602 672.523 269.168 672.523 272.953C672.523 276.785 674.645 279.211 678.137 279.211C680.797 279.211 682.859 277.641 683.211 275.508H681.207ZM678.008 268.371C679.93 268.371 681.207 269.824 681.254 271.863H674.633C674.762 269.836 676.098 268.371 678.008 268.371ZM685.215 270.176C685.215 271.934 686.328 273 688.625 273.551L690.559 274.02C691.953 274.359 692.434 274.863 692.434 275.742C692.434 276.844 691.414 277.547 689.762 277.547C688.109 277.547 687.172 276.879 686.926 275.484H684.887C685.121 277.77 686.902 279.211 689.762 279.211C692.48 279.211 694.484 277.711 694.484 275.59C694.484 273.844 693.594 272.883 691.133 272.285L689.199 271.816C687.84 271.488 687.219 270.914 687.219 270.07C687.219 269.004 688.203 268.266 689.691 268.266C691.191 268.266 692.129 269.051 692.281 270.328H694.227C694.145 268.172 692.363 266.602 689.691 266.602C687.055 266.602 685.215 268.09 685.215 270.176ZM697.262 263.871V266.812H695.445V268.488H697.262V275.836C697.262 278.18 698.129 279.094 700.367 279.094C700.848 279.094 701.41 279.059 701.656 279V277.289C701.516 277.312 701.047 277.348 700.812 277.348C699.77 277.348 699.301 276.844 699.301 275.73V268.488H701.668V266.812H699.301V263.871H697.262ZM705.242 282.363L706.848 276.398H704.68L703.543 282.363H705.242ZM718.285 266.602C715.156 266.602 713.094 269.074 713.094 272.906C713.094 276.727 715.156 279.211 718.238 279.211C719.961 279.211 721.379 278.355 722.141 276.961H722.188V283.066H724.227V266.812H722.281V268.875H722.234C721.449 267.469 720.055 266.602 718.285 266.602ZM718.648 277.418C716.516 277.418 715.18 275.684 715.18 272.906C715.18 270.117 716.516 268.395 718.648 268.395C720.734 268.395 722.188 270.188 722.188 272.906C722.188 275.625 720.734 277.418 718.648 277.418ZM736.895 266.812H734.855V273.973C734.855 276.047 733.66 277.406 731.68 277.406C729.793 277.406 728.867 276.34 728.867 274.359V266.812H726.828V274.723C726.828 277.488 728.387 279.211 731.047 279.211C732.922 279.211 734.188 278.426 734.914 277.02H734.961V279H736.895V266.812ZM743.105 279.211C744.746 279.211 746.293 278.297 747.02 276.902H747.066V279H749V270.574C749 268.148 747.195 266.602 744.336 266.602C741.453 266.602 739.648 268.219 739.508 270.328H741.477C741.734 269.133 742.719 268.395 744.289 268.395C745.977 268.395 746.961 269.285 746.961 270.773V271.793L743.469 271.992C740.656 272.156 739.051 273.469 739.051 275.555C739.051 277.746 740.68 279.211 743.105 279.211ZM743.562 277.477C742.098 277.477 741.125 276.715 741.125 275.555C741.125 274.406 742.062 273.68 743.703 273.574L746.961 273.375V274.371C746.961 276.129 745.484 277.477 743.562 277.477ZM751.695 279H753.734V262.09H751.695V279ZM757.613 264.645C758.328 264.645 758.891 264.07 758.891 263.367C758.891 262.652 758.328 262.09 757.613 262.09C756.91 262.09 756.336 262.652 756.336 263.367C756.336 264.07 756.91 264.645 757.613 264.645ZM756.594 279H758.633V266.812H756.594V279ZM762.043 279H764.082V268.488H766.566V266.812H764.07V265.465C764.07 264.258 764.598 263.672 765.699 263.672C766.039 263.672 766.379 263.707 766.625 263.742V262.09C766.332 262.043 765.84 261.996 765.383 261.996C763.133 261.996 762.043 263.109 762.043 265.453V266.812H760.344V268.488H762.043V279ZM769.801 264.645C770.516 264.645 771.078 264.07 771.078 263.367C771.078 262.652 770.516 262.09 769.801 262.09C769.098 262.09 768.523 262.652 768.523 263.367C768.523 264.07 769.098 264.645 769.801 264.645ZM768.781 279H770.82V266.812H768.781V279ZM781.66 275.508C781.32 276.656 780.184 277.441 778.637 277.441C776.445 277.441 775.074 275.906 775.074 273.574V273.457H783.816V272.684C783.816 268.992 781.789 266.602 778.496 266.602C775.133 266.602 772.977 269.168 772.977 272.953C772.977 276.785 775.098 279.211 778.59 279.211C781.25 279.211 783.312 277.641 783.664 275.508H781.66ZM778.461 268.371C780.383 268.371 781.66 269.824 781.707 271.863H775.086C775.215 269.836 776.551 268.371 778.461 268.371ZM790.496 279.211C792.254 279.211 793.648 278.344 794.434 276.938H794.469V279H796.414V262.09H794.375V268.793H794.328C793.602 267.457 792.195 266.602 790.449 266.602C787.379 266.602 785.281 269.086 785.281 272.906C785.281 276.727 787.391 279.211 790.496 279.211ZM790.883 268.395C792.98 268.395 794.387 270.188 794.387 272.906C794.387 275.637 792.98 277.418 790.883 277.418C788.727 277.418 787.367 275.672 787.367 272.906C787.367 270.152 788.727 268.395 790.883 268.395ZM800.562 282.363L802.168 276.398H800L798.863 282.363H800.562ZM812.574 279.211C814.215 279.211 815.762 278.297 816.488 276.902H816.535V279H818.469V270.574C818.469 268.148 816.664 266.602 813.805 266.602C810.922 266.602 809.117 268.219 808.977 270.328H810.945C811.203 269.133 812.188 268.395 813.758 268.395C815.445 268.395 816.43 269.285 816.43 270.773V271.793L812.938 271.992C810.125 272.156 808.52 273.469 808.52 275.555C808.52 277.746 810.148 279.211 812.574 279.211ZM813.031 277.477C811.566 277.477 810.594 276.715 810.594 275.555C810.594 274.406 811.531 273.68 813.172 273.574L816.43 273.375V274.371C816.43 276.129 814.953 277.477 813.031 277.477ZM821.059 279H823.098V271.828C823.098 269.766 824.352 268.406 826.273 268.406C828.148 268.406 829.074 269.484 829.074 271.453V279H831.113V271.09C831.113 268.324 829.566 266.602 826.895 266.602C825.008 266.602 823.707 267.445 823.027 268.758H822.98V266.812H821.059V279ZM838.332 279.211C840.09 279.211 841.484 278.344 842.27 276.938H842.305V279H844.25V262.09H842.211V268.793H842.164C841.438 267.457 840.031 266.602 838.285 266.602C835.215 266.602 833.117 269.086 833.117 272.906C833.117 276.727 835.227 279.211 838.332 279.211ZM838.719 268.395C840.816 268.395 842.223 270.188 842.223 272.906C842.223 275.637 840.816 277.418 838.719 277.418C836.562 277.418 835.203 275.672 835.203 272.906C835.203 270.152 836.562 268.395 838.719 268.395ZM570.887 309.211C572.527 309.211 574.074 308.297 574.801 306.902H574.848V309H576.781V300.574C576.781 298.148 574.977 296.602 572.117 296.602C569.234 296.602 567.43 298.219 567.289 300.328H569.258C569.516 299.133 570.5 298.395 572.07 298.395C573.758 298.395 574.742 299.285 574.742 300.773V301.793L571.25 301.992C568.438 302.156 566.832 303.469 566.832 305.555C566.832 307.746 568.461 309.211 570.887 309.211ZM571.344 307.477C569.879 307.477 568.906 306.715 568.906 305.555C568.906 304.406 569.844 303.68 571.484 303.574L574.742 303.375V304.371C574.742 306.129 573.266 307.477 571.344 307.477ZM589.367 296.812H587.246L583.871 306.832H583.824L580.461 296.812H578.316L582.805 309H584.891L589.367 296.812ZM594.301 309.211C595.941 309.211 597.488 308.297 598.215 306.902H598.262V309H600.195V300.574C600.195 298.148 598.391 296.602 595.531 296.602C592.648 296.602 590.844 298.219 590.703 300.328H592.672C592.93 299.133 593.914 298.395 595.484 298.395C597.172 298.395 598.156 299.285 598.156 300.773V301.793L594.664 301.992C591.852 302.156 590.246 303.469 590.246 305.555C590.246 307.746 591.875 309.211 594.301 309.211ZM594.758 307.477C593.293 307.477 592.32 306.715 592.32 305.555C592.32 304.406 593.258 303.68 594.898 303.574L598.156 303.375V304.371C598.156 306.129 596.68 307.477 594.758 307.477ZM603.91 294.645C604.625 294.645 605.188 294.07 605.188 293.367C605.188 292.652 604.625 292.09 603.91 292.09C603.207 292.09 602.633 292.652 602.633 293.367C602.633 294.07 603.207 294.645 603.91 294.645ZM602.891 309H604.93V296.812H602.891V309ZM607.789 309H609.828V292.09H607.789V309ZM616.145 309.211C617.785 309.211 619.332 308.297 620.059 306.902H620.105V309H622.039V300.574C622.039 298.148 620.234 296.602 617.375 296.602C614.492 296.602 612.688 298.219 612.547 300.328H614.516C614.773 299.133 615.758 298.395 617.328 298.395C619.016 298.395 620 299.285 620 300.773V301.793L616.508 301.992C613.695 302.156 612.09 303.469 612.09 305.555C612.09 307.746 613.719 309.211 616.145 309.211ZM616.602 307.477C615.137 307.477 614.164 306.715 614.164 305.555C614.164 304.406 615.102 303.68 616.742 303.574L620 303.375V304.371C620 306.129 618.523 307.477 616.602 307.477ZM630.688 309.211C633.805 309.211 635.867 306.738 635.867 302.906C635.867 299.086 633.793 296.602 630.723 296.602C629 296.602 627.582 297.457 626.82 298.852H626.773V292.09H624.734V309H626.68V306.938H626.727C627.512 308.344 628.906 309.211 630.688 309.211ZM630.289 298.395C632.445 298.395 633.781 300.141 633.781 302.906C633.781 305.695 632.445 307.418 630.289 307.418C628.227 307.418 626.762 305.625 626.762 302.906C626.762 300.199 628.227 298.395 630.289 298.395ZM638.047 309H640.086V292.09H638.047V309ZM650.926 305.508C650.586 306.656 649.449 307.441 647.902 307.441C645.711 307.441 644.34 305.906 644.34 303.574V303.457H653.082V302.684C653.082 298.992 651.055 296.602 647.762 296.602C644.398 296.602 642.242 299.168 642.242 302.953C642.242 306.785 644.363 309.211 647.855 309.211C650.516 309.211 652.578 307.641 652.93 305.508H650.926ZM647.727 298.371C649.648 298.371 650.926 299.824 650.973 301.863H644.352C644.48 299.836 645.816 298.371 647.727 298.371ZM670.191 300.809C669.934 298.617 668.117 296.602 665.07 296.602C661.707 296.602 659.469 299.062 659.469 302.906C659.469 306.832 661.719 309.211 665.094 309.211C667.859 309.211 669.898 307.5 670.215 305.074H668.211C667.859 306.539 666.77 307.418 665.105 307.418C662.996 307.418 661.543 305.742 661.543 302.906C661.543 300.141 662.973 298.395 665.082 298.395C666.875 298.395 667.906 299.484 668.199 300.809H670.191ZM677.141 309.211C680.504 309.211 682.777 306.785 682.777 302.906C682.777 299.016 680.504 296.602 677.141 296.602C673.766 296.602 671.492 299.016 671.492 302.906C671.492 306.785 673.766 309.211 677.141 309.211ZM677.141 307.418C674.984 307.418 673.566 305.777 673.566 302.906C673.566 300.035 674.984 298.395 677.141 298.395C679.297 298.395 680.703 300.035 680.703 302.906C680.703 305.777 679.297 307.418 677.141 307.418ZM684.945 309H686.984V292.09H684.945V309ZM689.844 309H691.883V292.09H689.844V309ZM702.723 305.508C702.383 306.656 701.246 307.441 699.699 307.441C697.508 307.441 696.137 305.906 696.137 303.574V303.457H704.879V302.684C704.879 298.992 702.852 296.602 699.559 296.602C696.195 296.602 694.039 299.168 694.039 302.953C694.039 306.785 696.16 309.211 699.652 309.211C702.312 309.211 704.375 307.641 704.727 305.508H702.723ZM699.523 298.371C701.445 298.371 702.723 299.824 702.77 301.863H696.148C696.277 299.836 697.613 298.371 699.523 298.371ZM717.066 300.809C716.809 298.617 714.992 296.602 711.945 296.602C708.582 296.602 706.344 299.062 706.344 302.906C706.344 306.832 708.594 309.211 711.969 309.211C714.734 309.211 716.773 307.5 717.09 305.074H715.086C714.734 306.539 713.645 307.418 711.98 307.418C709.871 307.418 708.418 305.742 708.418 302.906C708.418 300.141 709.848 298.395 711.957 298.395C713.75 298.395 714.781 299.484 715.074 300.809H717.066ZM719.621 293.871V296.812H717.805V298.488H719.621V305.836C719.621 308.18 720.488 309.094 722.727 309.094C723.207 309.094 723.77 309.059 724.016 309V307.289C723.875 307.312 723.406 307.348 723.172 307.348C722.129 307.348 721.66 306.844 721.66 305.73V298.488H724.027V296.812H721.66V293.871H719.621ZM730.906 309.211C734.27 309.211 736.543 306.785 736.543 302.906C736.543 299.016 734.27 296.602 730.906 296.602C727.531 296.602 725.258 299.016 725.258 302.906C725.258 306.785 727.531 309.211 730.906 309.211ZM730.906 307.418C728.75 307.418 727.332 305.777 727.332 302.906C727.332 300.035 728.75 298.395 730.906 298.395C733.062 298.395 734.469 300.035 734.469 302.906C734.469 305.777 733.062 307.418 730.906 307.418ZM738.605 309H740.645V301.406C740.645 299.684 741.676 298.547 743.258 298.547C743.75 298.547 744.184 298.605 744.348 298.664V296.684C744.184 296.66 743.879 296.602 743.527 296.602C742.098 296.602 740.973 297.457 740.574 298.805H740.527V296.812H738.605V309ZM745.801 300.176C745.801 301.934 746.914 303 749.211 303.551L751.145 304.02C752.539 304.359 753.02 304.863 753.02 305.742C753.02 306.844 752 307.547 750.348 307.547C748.695 307.547 747.758 306.879 747.512 305.484H745.473C745.707 307.77 747.488 309.211 750.348 309.211C753.066 309.211 755.07 307.711 755.07 305.59C755.07 303.844 754.18 302.883 751.719 302.285L749.785 301.816C748.426 301.488 747.805 300.914 747.805 300.07C747.805 299.004 748.789 298.266 750.277 298.266C751.777 298.266 752.715 299.051 752.867 300.328H754.812C754.73 298.172 752.949 296.602 750.277 296.602C747.641 296.602 745.801 298.09 745.801 300.176Z" fill="#425466"/>
<path d="M545 168C545 159.163 552.163 152 561 152H857C865.837 152 873 159.163 873 168V212H545V168Z" fill="#4FC9EF"/>
<path d="M568.812 188V175.317H567.23V188H568.812ZM571.036 188H572.565V182.621C572.565 181.074 573.506 180.055 574.947 180.055C576.354 180.055 577.048 180.863 577.048 182.34V188H578.577V182.067C578.577 179.993 577.417 178.701 575.413 178.701C573.998 178.701 573.022 179.334 572.513 180.318H572.478V178.859H571.036V188ZM581.021 176.653V178.859H579.658V180.116H581.021V185.627C581.021 187.385 581.671 188.07 583.35 188.07C583.71 188.07 584.132 188.044 584.316 188V186.717C584.211 186.734 583.859 186.761 583.684 186.761C582.901 186.761 582.55 186.383 582.55 185.548V180.116H584.325V178.859H582.55V176.653H581.021ZM591.761 185.381C591.506 186.242 590.653 186.831 589.493 186.831C587.85 186.831 586.821 185.68 586.821 183.931V183.843H593.378V183.263C593.378 180.494 591.857 178.701 589.388 178.701C586.865 178.701 585.248 180.626 585.248 183.465C585.248 186.339 586.839 188.158 589.458 188.158C591.453 188.158 593 186.98 593.264 185.381H591.761ZM589.361 180.028C590.803 180.028 591.761 181.118 591.796 182.647H586.83C586.927 181.127 587.929 180.028 589.361 180.028ZM595.004 188H596.533V175.317H595.004V188ZM598.678 188H600.207V175.317H598.678V188ZM603.116 177.233C603.652 177.233 604.074 176.803 604.074 176.275C604.074 175.739 603.652 175.317 603.116 175.317C602.589 175.317 602.158 175.739 602.158 176.275C602.158 176.803 602.589 177.233 603.116 177.233ZM602.352 188H603.881V178.859H602.352V188ZM609.717 191.445C612.239 191.445 613.848 189.995 613.848 187.815V178.859H612.389V180.397H612.362C611.756 179.334 610.684 178.701 609.392 178.701C607.027 178.701 605.498 180.529 605.498 183.395C605.498 186.233 607.027 188.07 609.356 188.07C610.64 188.07 611.721 187.42 612.283 186.427H612.318V187.868C612.318 189.23 611.36 190.145 609.778 190.145C608.636 190.145 607.73 189.591 607.432 188.756H605.858C606.113 190.312 607.704 191.445 609.717 191.445ZM609.664 186.726C608.091 186.726 607.062 185.442 607.062 183.395C607.062 181.347 608.091 180.046 609.664 180.046C611.255 180.046 612.318 181.382 612.318 183.395C612.318 185.407 611.255 186.726 609.664 186.726ZM621.907 185.381C621.652 186.242 620.8 186.831 619.64 186.831C617.996 186.831 616.968 185.68 616.968 183.931V183.843H623.524V183.263C623.524 180.494 622.004 178.701 619.534 178.701C617.012 178.701 615.395 180.626 615.395 183.465C615.395 186.339 616.985 188.158 619.604 188.158C621.6 188.158 623.146 186.98 623.41 185.381H621.907ZM619.508 180.028C620.949 180.028 621.907 181.118 621.942 182.647H616.977C617.073 181.127 618.075 180.028 619.508 180.028ZM625.071 188H626.601V182.621C626.601 181.074 627.541 180.055 628.982 180.055C630.389 180.055 631.083 180.863 631.083 182.34V188H632.612V182.067C632.612 179.993 631.452 178.701 629.448 178.701C628.033 178.701 627.058 179.334 626.548 180.318H626.513V178.859H625.071V188ZM635.056 176.653V178.859H633.693V180.116H635.056V185.627C635.056 187.385 635.706 188.07 637.385 188.07C637.745 188.07 638.167 188.044 638.352 188V186.717C638.246 186.734 637.895 186.761 637.719 186.761C636.937 186.761 636.585 186.383 636.585 185.548V180.116H638.36V178.859H636.585V176.653H635.056ZM646.358 188.158C647.589 188.158 648.749 187.473 649.294 186.427H649.329V188H650.779V181.681C650.779 179.861 649.426 178.701 647.281 178.701C645.119 178.701 643.766 179.914 643.66 181.496H645.137C645.33 180.6 646.068 180.046 647.246 180.046C648.512 180.046 649.25 180.714 649.25 181.83V182.595L646.631 182.744C644.521 182.867 643.317 183.852 643.317 185.416C643.317 187.06 644.539 188.158 646.358 188.158ZM646.701 186.857C645.603 186.857 644.873 186.286 644.873 185.416C644.873 184.555 645.576 184.01 646.807 183.931L649.25 183.781V184.528C649.25 185.847 648.143 186.857 646.701 186.857ZM652.563 181.382C652.563 182.7 653.398 183.5 655.121 183.913L656.571 184.265C657.617 184.52 657.978 184.897 657.978 185.557C657.978 186.383 657.213 186.91 655.974 186.91C654.734 186.91 654.031 186.409 653.847 185.363H652.317C652.493 187.077 653.829 188.158 655.974 188.158C658.013 188.158 659.516 187.033 659.516 185.442C659.516 184.133 658.848 183.412 657.002 182.964L655.552 182.612C654.532 182.366 654.066 181.936 654.066 181.303C654.066 180.503 654.805 179.949 655.921 179.949C657.046 179.949 657.749 180.538 657.863 181.496H659.322C659.261 179.879 657.925 178.701 655.921 178.701C653.943 178.701 652.563 179.817 652.563 181.382ZM660.948 181.382C660.948 182.7 661.783 183.5 663.506 183.913L664.956 184.265C666.002 184.52 666.362 184.897 666.362 185.557C666.362 186.383 665.598 186.91 664.358 186.91C663.119 186.91 662.416 186.409 662.231 185.363H660.702C660.878 187.077 662.214 188.158 664.358 188.158C666.397 188.158 667.9 187.033 667.9 185.442C667.9 184.133 667.232 183.412 665.387 182.964L663.937 182.612C662.917 182.366 662.451 181.936 662.451 181.303C662.451 180.503 663.189 179.949 664.306 179.949C665.431 179.949 666.134 180.538 666.248 181.496H667.707C667.646 179.879 666.31 178.701 664.306 178.701C662.328 178.701 660.948 179.817 660.948 181.382ZM670.335 177.233C670.871 177.233 671.293 176.803 671.293 176.275C671.293 175.739 670.871 175.317 670.335 175.317C669.808 175.317 669.377 175.739 669.377 176.275C669.377 176.803 669.808 177.233 670.335 177.233ZM669.57 188H671.1V178.859H669.57V188ZM676.936 191.445C679.458 191.445 681.066 189.995 681.066 187.815V178.859H679.607V180.397H679.581C678.975 179.334 677.902 178.701 676.61 178.701C674.246 178.701 672.717 180.529 672.717 183.395C672.717 186.233 674.246 188.07 676.575 188.07C677.858 188.07 678.939 187.42 679.502 186.427H679.537V187.868C679.537 189.23 678.579 190.145 676.997 190.145C675.854 190.145 674.949 189.591 674.65 188.756H673.077C673.332 190.312 674.923 191.445 676.936 191.445ZM676.883 186.726C675.31 186.726 674.281 185.442 674.281 183.395C674.281 181.347 675.31 180.046 676.883 180.046C678.474 180.046 679.537 181.382 679.537 183.395C679.537 185.407 678.474 186.726 676.883 186.726ZM683.062 188H684.591V182.621C684.591 181.074 685.531 180.055 686.973 180.055C688.379 180.055 689.073 180.863 689.073 182.34V188H690.603V182.067C690.603 179.993 689.442 178.701 687.438 178.701C686.023 178.701 685.048 179.334 684.538 180.318H684.503V178.859H683.062V188ZM692.554 188H694.083V182.27C694.083 181.004 694.962 180.055 696.175 180.055C697.309 180.055 698.047 180.775 698.047 181.874V188H699.576V182.19C699.576 180.951 700.429 180.055 701.642 180.055C702.846 180.055 703.54 180.793 703.54 182.041V188H705.069V181.689C705.069 179.879 703.9 178.701 702.09 178.701C700.807 178.701 699.734 179.352 699.225 180.441H699.189C698.794 179.334 697.871 178.701 696.623 178.701C695.393 178.701 694.461 179.352 694.03 180.318H693.995V178.859H692.554V188ZM713.085 185.381C712.83 186.242 711.978 186.831 710.817 186.831C709.174 186.831 708.146 185.68 708.146 183.931V183.843H714.702V183.263C714.702 180.494 713.182 178.701 710.712 178.701C708.189 178.701 706.572 180.626 706.572 183.465C706.572 186.339 708.163 188.158 710.782 188.158C712.777 188.158 714.324 186.98 714.588 185.381H713.085ZM710.686 180.028C712.127 180.028 713.085 181.118 713.12 182.647H708.154C708.251 181.127 709.253 180.028 710.686 180.028ZM716.249 188H717.778V182.621C717.778 181.074 718.719 180.055 720.16 180.055C721.566 180.055 722.261 180.863 722.261 182.34V188H723.79V182.067C723.79 179.993 722.63 178.701 720.626 178.701C719.211 178.701 718.235 179.334 717.726 180.318H717.69V178.859H716.249V188ZM726.233 176.653V178.859H724.871V180.116H726.233V185.627C726.233 187.385 726.884 188.07 728.562 188.07C728.923 188.07 729.345 188.044 729.529 188V186.717C729.424 186.734 729.072 186.761 728.896 186.761C728.114 186.761 727.763 186.383 727.763 185.548V180.116H729.538V178.859H727.763V176.653H726.233Z" fill="white"/>
<line x1="1052.5" y1="190" x2="1052.5" y2="394" stroke="#99ABBC"/>
<g opacity="0.8">
<circle cx="1052" cy="193" r="18.3077" stroke="#BABFCB" stroke-opacity="0.3" stroke-width="14"/>
<circle cx="1052" cy="193" r="30.1538" stroke="#BABFCB" stroke-opacity="0.2" stroke-width="14"/>
<circle cx="1052" cy="193" r="42" stroke="#BABFCB" stroke-opacity="0.1" stroke-width="14"/>
<circle cx="1052" cy="193" r="7" stroke="#BABFCB" stroke-opacity="0.4" stroke-width="11.8462"/>
</g>
<circle cx="1052.5" cy="193.5" r="13.5" fill="#F1F7F8" stroke="#99ABBC" stroke-width="4"/>
<circle cx="1052.5" cy="193.5" r="6.5" fill="#00D6B3"/>
<g filter="url(#filter2_d)">
<rect x="888" y="374" width="328" height="209" rx="16" fill="white"/>
</g>
<path d="M927.305 479V462.09H924.855L919.02 476.316H918.926L913.09 462.09H910.641V479H912.609V465.969H912.691L918.082 479H919.863L925.254 465.969H925.336V479H927.305ZM935.32 479.211C938.684 479.211 940.957 476.785 940.957 472.906C940.957 469.016 938.684 466.602 935.32 466.602C931.945 466.602 929.672 469.016 929.672 472.906C929.672 476.785 931.945 479.211 935.32 479.211ZM935.32 477.418C933.164 477.418 931.746 475.777 931.746 472.906C931.746 470.035 933.164 468.395 935.32 468.395C937.477 468.395 938.883 470.035 938.883 472.906C938.883 475.777 937.477 477.418 935.32 477.418ZM943.02 479H945.059V471.828C945.059 469.766 946.312 468.406 948.234 468.406C950.109 468.406 951.035 469.484 951.035 471.453V479H953.074V471.09C953.074 468.324 951.527 466.602 948.855 466.602C946.969 466.602 945.668 467.445 944.988 468.758H944.941V466.812H943.02V479ZM956.801 464.645C957.516 464.645 958.078 464.07 958.078 463.367C958.078 462.652 957.516 462.09 956.801 462.09C956.098 462.09 955.523 462.652 955.523 463.367C955.523 464.07 956.098 464.645 956.801 464.645ZM955.781 479H957.82V466.812H955.781V479ZM961.23 463.871V466.812H959.414V468.488H961.23V475.836C961.23 478.18 962.098 479.094 964.336 479.094C964.816 479.094 965.379 479.059 965.625 479V477.289C965.484 477.312 965.016 477.348 964.781 477.348C963.738 477.348 963.27 476.844 963.27 475.73V468.488H965.637V466.812H963.27V463.871H961.23ZM972.516 479.211C975.879 479.211 978.152 476.785 978.152 472.906C978.152 469.016 975.879 466.602 972.516 466.602C969.141 466.602 966.867 469.016 966.867 472.906C966.867 476.785 969.141 479.211 972.516 479.211ZM972.516 477.418C970.359 477.418 968.941 475.777 968.941 472.906C968.941 470.035 970.359 468.395 972.516 468.395C974.672 468.395 976.078 470.035 976.078 472.906C976.078 475.777 974.672 477.418 972.516 477.418ZM980.215 479H982.254V471.406C982.254 469.684 983.285 468.547 984.867 468.547C985.359 468.547 985.793 468.605 985.957 468.664V466.684C985.793 466.66 985.488 466.602 985.137 466.602C983.707 466.602 982.582 467.457 982.184 468.805H982.137V466.812H980.215V479ZM1002.67 470.809C1002.41 468.617 1000.59 466.602 997.547 466.602C994.184 466.602 991.945 469.062 991.945 472.906C991.945 476.832 994.195 479.211 997.57 479.211C1000.34 479.211 1002.38 477.5 1002.69 475.074H1000.69C1000.34 476.539 999.246 477.418 997.582 477.418C995.473 477.418 994.02 475.742 994.02 472.906C994.02 470.141 995.449 468.395 997.559 468.395C999.352 468.395 1000.38 469.484 1000.68 470.809H1002.67ZM1009.62 479.211C1012.98 479.211 1015.25 476.785 1015.25 472.906C1015.25 469.016 1012.98 466.602 1009.62 466.602C1006.24 466.602 1003.97 469.016 1003.97 472.906C1003.97 476.785 1006.24 479.211 1009.62 479.211ZM1009.62 477.418C1007.46 477.418 1006.04 475.777 1006.04 472.906C1006.04 470.035 1007.46 468.395 1009.62 468.395C1011.77 468.395 1013.18 470.035 1013.18 472.906C1013.18 475.777 1011.77 477.418 1009.62 477.418ZM1017.42 479H1019.46V462.09H1017.42V479ZM1022.32 479H1024.36V462.09H1022.32V479ZM1035.2 475.508C1034.86 476.656 1033.72 477.441 1032.18 477.441C1029.98 477.441 1028.61 475.906 1028.61 473.574V473.457H1037.36V472.684C1037.36 468.992 1035.33 466.602 1032.04 466.602C1028.67 466.602 1026.52 469.168 1026.52 472.953C1026.52 476.785 1028.64 479.211 1032.13 479.211C1034.79 479.211 1036.85 477.641 1037.2 475.508H1035.2ZM1032 468.371C1033.92 468.371 1035.2 469.824 1035.25 471.863H1028.62C1028.75 469.836 1030.09 468.371 1032 468.371ZM1049.54 470.809C1049.29 468.617 1047.47 466.602 1044.42 466.602C1041.06 466.602 1038.82 469.062 1038.82 472.906C1038.82 476.832 1041.07 479.211 1044.45 479.211C1047.21 479.211 1049.25 477.5 1049.57 475.074H1047.56C1047.21 476.539 1046.12 477.418 1044.46 477.418C1042.35 477.418 1040.89 475.742 1040.89 472.906C1040.89 470.141 1042.32 468.395 1044.43 468.395C1046.23 468.395 1047.26 469.484 1047.55 470.809H1049.54ZM1052.1 463.871V466.812H1050.28V468.488H1052.1V475.836C1052.1 478.18 1052.96 479.094 1055.2 479.094C1055.68 479.094 1056.25 479.059 1056.49 479V477.289C1056.35 477.312 1055.88 477.348 1055.65 477.348C1054.61 477.348 1054.14 476.844 1054.14 475.73V468.488H1056.5V466.812H1054.14V463.871H1052.1ZM1059.81 464.645C1060.52 464.645 1061.09 464.07 1061.09 463.367C1061.09 462.652 1060.52 462.09 1059.81 462.09C1059.11 462.09 1058.53 462.652 1058.53 463.367C1058.53 464.07 1059.11 464.645 1059.81 464.645ZM1058.79 479H1060.83V466.812H1058.79V479ZM1068.63 479.211C1072 479.211 1074.27 476.785 1074.27 472.906C1074.27 469.016 1072 466.602 1068.63 466.602C1065.26 466.602 1062.98 469.016 1062.98 472.906C1062.98 476.785 1065.26 479.211 1068.63 479.211ZM1068.63 477.418C1066.48 477.418 1065.06 475.777 1065.06 472.906C1065.06 470.035 1066.48 468.395 1068.63 468.395C1070.79 468.395 1072.2 470.035 1072.2 472.906C1072.2 475.777 1070.79 477.418 1068.63 477.418ZM1076.33 479H1078.37V471.828C1078.37 469.766 1079.62 468.406 1081.55 468.406C1083.42 468.406 1084.35 469.484 1084.35 471.453V479H1086.39V471.09C1086.39 468.324 1084.84 466.602 1082.17 466.602C1080.28 466.602 1078.98 467.445 1078.3 468.758H1078.25V466.812H1076.33V479ZM1093.7 470.176C1093.7 471.934 1094.81 473 1097.11 473.551L1099.04 474.02C1100.44 474.359 1100.92 474.863 1100.92 475.742C1100.92 476.844 1099.9 477.547 1098.25 477.547C1096.59 477.547 1095.66 476.879 1095.41 475.484H1093.37C1093.61 477.77 1095.39 479.211 1098.25 479.211C1100.96 479.211 1102.97 477.711 1102.97 475.59C1102.97 473.844 1102.08 472.883 1099.62 472.285L1097.68 471.816C1096.32 471.488 1095.7 470.914 1095.7 470.07C1095.7 469.004 1096.69 468.266 1098.18 468.266C1099.68 468.266 1100.61 469.051 1100.77 470.328H1102.71C1102.63 468.172 1100.85 466.602 1098.18 466.602C1095.54 466.602 1093.7 468.09 1093.7 470.176ZM1105.75 463.871V466.812H1103.93V468.488H1105.75V475.836C1105.75 478.18 1106.61 479.094 1108.85 479.094C1109.33 479.094 1109.89 479.059 1110.14 479V477.289C1110 477.312 1109.53 477.348 1109.3 477.348C1108.25 477.348 1107.79 476.844 1107.79 475.73V468.488H1110.15V466.812H1107.79V463.871H1105.75ZM1115.66 479.211C1117.3 479.211 1118.85 478.297 1119.57 476.902H1119.62V479H1121.55V470.574C1121.55 468.148 1119.75 466.602 1116.89 466.602C1114.01 466.602 1112.2 468.219 1112.06 470.328H1114.03C1114.29 469.133 1115.27 468.395 1116.84 468.395C1118.53 468.395 1119.52 469.285 1119.52 470.773V471.793L1116.02 471.992C1113.21 472.156 1111.61 473.469 1111.61 475.555C1111.61 477.746 1113.23 479.211 1115.66 479.211ZM1116.12 477.477C1114.65 477.477 1113.68 476.715 1113.68 475.555C1113.68 474.406 1114.62 473.68 1116.26 473.574L1119.52 473.375V474.371C1119.52 476.129 1118.04 477.477 1116.12 477.477ZM1124.8 463.871V466.812H1122.98V468.488H1124.8V475.836C1124.8 478.18 1125.67 479.094 1127.91 479.094C1128.39 479.094 1128.95 479.059 1129.2 479V477.289C1129.05 477.312 1128.59 477.348 1128.35 477.348C1127.31 477.348 1126.84 476.844 1126.84 475.73V468.488H1129.21V466.812H1126.84V463.871H1124.8ZM1141.39 466.812H1139.36V473.973C1139.36 476.047 1138.16 477.406 1136.18 477.406C1134.29 477.406 1133.37 476.34 1133.37 474.359V466.812H1131.33V474.723C1131.33 477.488 1132.89 479.211 1135.55 479.211C1137.42 479.211 1138.69 478.426 1139.41 477.02H1139.46V479H1141.39V466.812ZM1143.83 470.176C1143.83 471.934 1144.95 473 1147.24 473.551L1149.18 474.02C1150.57 474.359 1151.05 474.863 1151.05 475.742C1151.05 476.844 1150.03 477.547 1148.38 477.547C1146.73 477.547 1145.79 476.879 1145.54 475.484H1143.5C1143.74 477.77 1145.52 479.211 1148.38 479.211C1151.1 479.211 1153.1 477.711 1153.1 475.59C1153.1 473.844 1152.21 472.883 1149.75 472.285L1147.82 471.816C1146.46 471.488 1145.84 470.914 1145.84 470.07C1145.84 469.004 1146.82 468.266 1148.31 468.266C1149.81 468.266 1150.75 469.051 1150.9 470.328H1152.84C1152.76 468.172 1150.98 466.602 1148.31 466.602C1145.67 466.602 1143.83 468.09 1143.83 470.176ZM911.449 494.645C912.164 494.645 912.727 494.07 912.727 493.367C912.727 492.652 912.164 492.09 911.449 492.09C910.746 492.09 910.172 492.652 910.172 493.367C910.172 494.07 910.746 494.645 911.449 494.645ZM910.43 509H912.469V496.812H910.43V509ZM915.223 509H917.262V501.828C917.262 499.766 918.516 498.406 920.438 498.406C922.312 498.406 923.238 499.484 923.238 501.453V509H925.277V501.09C925.277 498.324 923.73 496.602 921.059 496.602C919.172 496.602 917.871 497.445 917.191 498.758H917.145V496.812H915.223V509ZM932.801 509H934.84V501.406C934.84 499.684 935.871 498.547 937.453 498.547C937.945 498.547 938.379 498.605 938.543 498.664V496.684C938.379 496.66 938.074 496.602 937.723 496.602C936.293 496.602 935.168 497.457 934.77 498.805H934.723V496.812H932.801V509ZM947.707 505.508C947.367 506.656 946.23 507.441 944.684 507.441C942.492 507.441 941.121 505.906 941.121 503.574V503.457H949.863V502.684C949.863 498.992 947.836 496.602 944.543 496.602C941.18 496.602 939.023 499.168 939.023 502.953C939.023 506.785 941.145 509.211 944.637 509.211C947.297 509.211 949.359 507.641 949.711 505.508H947.707ZM944.508 498.371C946.43 498.371 947.707 499.824 947.754 501.863H941.133C941.262 499.836 942.598 498.371 944.508 498.371ZM955.488 509.211C957.129 509.211 958.676 508.297 959.402 506.902H959.449V509H961.383V500.574C961.383 498.148 959.578 496.602 956.719 496.602C953.836 496.602 952.031 498.219 951.891 500.328H953.859C954.117 499.133 955.102 498.395 956.672 498.395C958.359 498.395 959.344 499.285 959.344 500.773V501.793L955.852 501.992C953.039 502.156 951.434 503.469 951.434 505.555C951.434 507.746 953.062 509.211 955.488 509.211ZM955.945 507.477C954.48 507.477 953.508 506.715 953.508 505.555C953.508 504.406 954.445 503.68 956.086 503.574L959.344 503.375V504.371C959.344 506.129 957.867 507.477 955.945 507.477ZM964.078 509H966.117V492.09H964.078V509ZM976.535 503.094V501.195H968.848V503.094H976.535ZM979.816 493.871V496.812H978V498.488H979.816V505.836C979.816 508.18 980.684 509.094 982.922 509.094C983.402 509.094 983.965 509.059 984.211 509V507.289C984.07 507.312 983.602 507.348 983.367 507.348C982.324 507.348 981.855 506.844 981.855 505.73V498.488H984.223V496.812H981.855V493.871H979.816ZM987.527 494.645C988.242 494.645 988.805 494.07 988.805 493.367C988.805 492.652 988.242 492.09 987.527 492.09C986.824 492.09 986.25 492.652 986.25 493.367C986.25 494.07 986.824 494.645 987.527 494.645ZM986.508 509H988.547V496.812H986.508V509ZM991.301 509H993.34V501.359C993.34 499.672 994.512 498.406 996.129 498.406C997.641 498.406 998.625 499.367 998.625 500.832V509H1000.66V501.254C1000.66 499.602 1001.8 498.406 1003.42 498.406C1005.02 498.406 1005.95 499.391 1005.95 501.055V509H1007.99V500.586C1007.99 498.172 1006.43 496.602 1004.02 496.602C1002.3 496.602 1000.88 497.469 1000.2 498.922H1000.15C999.621 497.445 998.391 496.602 996.727 496.602C995.086 496.602 993.844 497.469 993.27 498.758H993.223V496.812H991.301V509ZM1018.68 505.508C1018.34 506.656 1017.2 507.441 1015.65 507.441C1013.46 507.441 1012.09 505.906 1012.09 503.574V503.457H1020.83V502.684C1020.83 498.992 1018.8 496.602 1015.51 496.602C1012.15 496.602 1009.99 499.168 1009.99 502.953C1009.99 506.785 1012.11 509.211 1015.61 509.211C1018.27 509.211 1020.33 507.641 1020.68 505.508H1018.68ZM1015.48 498.371C1017.4 498.371 1018.68 499.824 1018.72 501.863H1012.1C1012.23 499.836 1013.57 498.371 1015.48 498.371ZM1028.47 509H1030.51V498.488H1033V496.812H1030.5V495.465C1030.5 494.258 1031.03 493.672 1032.13 493.672C1032.47 493.672 1032.81 493.707 1033.05 493.742V492.09C1032.76 492.043 1032.27 491.996 1031.81 491.996C1029.56 491.996 1028.47 493.109 1028.47 495.453V496.812H1026.77V498.488H1028.47V509ZM1035.11 509H1037.14V501.406C1037.14 499.684 1038.18 498.547 1039.76 498.547C1040.25 498.547 1040.68 498.605 1040.85 498.664V496.684C1040.68 496.66 1040.38 496.602 1040.03 496.602C1038.6 496.602 1037.47 497.457 1037.07 498.805H1037.03V496.812H1035.11V509ZM1046.98 509.211C1050.34 509.211 1052.61 506.785 1052.61 502.906C1052.61 499.016 1050.34 496.602 1046.98 496.602C1043.6 496.602 1041.33 499.016 1041.33 502.906C1041.33 506.785 1043.6 509.211 1046.98 509.211ZM1046.98 507.418C1044.82 507.418 1043.4 505.777 1043.4 502.906C1043.4 500.035 1044.82 498.395 1046.98 498.395C1049.13 498.395 1050.54 500.035 1050.54 502.906C1050.54 505.777 1049.13 507.418 1046.98 507.418ZM1054.68 509H1056.71V501.359C1056.71 499.672 1057.89 498.406 1059.5 498.406C1061.02 498.406 1062 499.367 1062 500.832V509H1064.04V501.254C1064.04 499.602 1065.18 498.406 1066.79 498.406C1068.4 498.406 1069.32 499.391 1069.32 501.055V509H1071.36V500.586C1071.36 498.172 1069.8 496.602 1067.39 496.602C1065.68 496.602 1064.25 497.469 1063.57 498.922H1063.52C1063 497.445 1061.77 496.602 1060.1 496.602C1058.46 496.602 1057.22 497.469 1056.64 498.758H1056.6V496.812H1054.68V509ZM1083.94 509.211C1087.3 509.211 1089.57 506.785 1089.57 502.906C1089.57 499.016 1087.3 496.602 1083.94 496.602C1080.56 496.602 1078.29 499.016 1078.29 502.906C1078.29 506.785 1080.56 509.211 1083.94 509.211ZM1083.94 507.418C1081.78 507.418 1080.36 505.777 1080.36 502.906C1080.36 500.035 1081.78 498.395 1083.94 498.395C1086.09 498.395 1087.5 500.035 1087.5 502.906C1087.5 505.777 1086.09 507.418 1083.94 507.418ZM1091.64 509H1093.68V501.828C1093.68 499.766 1094.93 498.406 1096.85 498.406C1098.73 498.406 1099.65 499.484 1099.65 501.453V509H1101.69V501.09C1101.69 498.324 1100.14 496.602 1097.47 496.602C1095.59 496.602 1094.29 497.445 1093.61 498.758H1093.56V496.812H1091.64V509ZM1112.38 505.508C1112.04 506.656 1110.9 507.441 1109.36 507.441C1107.16 507.441 1105.79 505.906 1105.79 503.574V503.457H1114.54V502.684C1114.54 498.992 1112.51 496.602 1109.21 496.602C1105.85 496.602 1103.7 499.168 1103.7 502.953C1103.7 506.785 1105.82 509.211 1109.31 509.211C1111.97 509.211 1114.03 507.641 1114.38 505.508H1112.38ZM1109.18 498.371C1111.1 498.371 1112.38 499.824 1112.43 501.863H1105.8C1105.93 499.836 1107.27 498.371 1109.18 498.371ZM914.941 539.211C916.699 539.211 918.094 538.344 918.879 536.938H918.914V539H920.859V522.09H918.82V528.793H918.773C918.047 527.457 916.641 526.602 914.895 526.602C911.824 526.602 909.727 529.086 909.727 532.906C909.727 536.727 911.836 539.211 914.941 539.211ZM915.328 528.395C917.426 528.395 918.832 530.188 918.832 532.906C918.832 535.637 917.426 537.418 915.328 537.418C913.172 537.418 911.812 535.672 911.812 532.906C911.812 530.152 913.172 528.395 915.328 528.395ZM927.176 539.211C928.816 539.211 930.363 538.297 931.09 536.902H931.137V539H933.07V530.574C933.07 528.148 931.266 526.602 928.406 526.602C925.523 526.602 923.719 528.219 923.578 530.328H925.547C925.805 529.133 926.789 528.395 928.359 528.395C930.047 528.395 931.031 529.285 931.031 530.773V531.793L927.539 531.992C924.727 532.156 923.121 533.469 923.121 535.555C923.121 537.746 924.75 539.211 927.176 539.211ZM927.633 537.477C926.168 537.477 925.195 536.715 925.195 535.555C925.195 534.406 926.133 533.68 927.773 533.574L931.031 533.375V534.371C931.031 536.129 929.555 537.477 927.633 537.477ZM935.449 530.176C935.449 531.934 936.562 533 938.859 533.551L940.793 534.02C942.188 534.359 942.668 534.863 942.668 535.742C942.668 536.844 941.648 537.547 939.996 537.547C938.344 537.547 937.406 536.879 937.16 535.484H935.121C935.355 537.77 937.137 539.211 939.996 539.211C942.715 539.211 944.719 537.711 944.719 535.59C944.719 533.844 943.828 532.883 941.367 532.285L939.434 531.816C938.074 531.488 937.453 530.914 937.453 530.07C937.453 529.004 938.438 528.266 939.926 528.266C941.426 528.266 942.363 529.051 942.516 530.328H944.461C944.379 528.172 942.598 526.602 939.926 526.602C937.289 526.602 935.449 528.09 935.449 530.176ZM946.945 539H948.984V531.898C948.984 529.789 950.238 528.406 952.266 528.406C954.176 528.406 955.148 529.566 955.148 531.5V539H957.188V531.125C957.188 528.406 955.57 526.602 952.898 526.602C951.047 526.602 949.711 527.398 949.031 528.758H948.984V522.09H946.945V539ZM965.836 539.211C968.953 539.211 971.016 536.738 971.016 532.906C971.016 529.086 968.941 526.602 965.871 526.602C964.148 526.602 962.73 527.457 961.969 528.852H961.922V522.09H959.883V539H961.828V536.938H961.875C962.66 538.344 964.055 539.211 965.836 539.211ZM965.438 528.395C967.594 528.395 968.93 530.141 968.93 532.906C968.93 535.695 967.594 537.418 965.438 537.418C963.375 537.418 961.91 535.625 961.91 532.906C961.91 530.199 963.375 528.395 965.438 528.395ZM978.141 539.211C981.504 539.211 983.777 536.785 983.777 532.906C983.777 529.016 981.504 526.602 978.141 526.602C974.766 526.602 972.492 529.016 972.492 532.906C972.492 536.785 974.766 539.211 978.141 539.211ZM978.141 537.418C975.984 537.418 974.566 535.777 974.566 532.906C974.566 530.035 975.984 528.395 978.141 528.395C980.297 528.395 981.703 530.035 981.703 532.906C981.703 535.777 980.297 537.418 978.141 537.418ZM989.402 539.211C991.043 539.211 992.59 538.297 993.316 536.902H993.363V539H995.297V530.574C995.297 528.148 993.492 526.602 990.633 526.602C987.75 526.602 985.945 528.219 985.805 530.328H987.773C988.031 529.133 989.016 528.395 990.586 528.395C992.273 528.395 993.258 529.285 993.258 530.773V531.793L989.766 531.992C986.953 532.156 985.348 533.469 985.348 535.555C985.348 537.746 986.977 539.211 989.402 539.211ZM989.859 537.477C988.395 537.477 987.422 536.715 987.422 535.555C987.422 534.406 988.359 533.68 990 533.574L993.258 533.375V534.371C993.258 536.129 991.781 537.477 989.859 537.477ZM997.887 539H999.926V531.406C999.926 529.684 1000.96 528.547 1002.54 528.547C1003.03 528.547 1003.46 528.605 1003.63 528.664V526.684C1003.46 526.66 1003.16 526.602 1002.81 526.602C1001.38 526.602 1000.25 527.457 999.855 528.805H999.809V526.812H997.887V539ZM1009.32 539.211C1011.08 539.211 1012.48 538.344 1013.26 536.938H1013.3V539H1015.24V522.09H1013.2V528.793H1013.16C1012.43 527.457 1011.02 526.602 1009.28 526.602C1006.21 526.602 1004.11 529.086 1004.11 532.906C1004.11 536.727 1006.22 539.211 1009.32 539.211ZM1009.71 528.395C1011.81 528.395 1013.21 530.188 1013.21 532.906C1013.21 535.637 1011.81 537.418 1009.71 537.418C1007.55 537.418 1006.2 535.672 1006.2 532.906C1006.2 530.152 1007.55 528.395 1009.71 528.395Z" fill="#425466"/>
<path d="M888 391C888 382.163 895.163 375 904 375H1200C1208.84 375 1216 382.163 1216 391V435H888V391Z" fill="#4FC9EF"/>
<path d="M915.583 398.106C911.988 398.106 909.738 400.638 909.738 404.663C909.738 408.688 911.988 411.211 915.583 411.211C919.178 411.211 921.428 408.688 921.428 404.663C921.428 400.638 919.178 398.106 915.583 398.106ZM915.583 399.565C918.176 399.565 919.802 401.534 919.802 404.663C919.802 407.783 918.176 409.752 915.583 409.752C912.99 409.752 911.364 407.783 911.364 404.663C911.364 401.534 912.99 399.565 915.583 399.565ZM923.159 411H924.688V405.621C924.688 404.074 925.629 403.055 927.07 403.055C928.477 403.055 929.171 403.863 929.171 405.34V411H930.7V405.067C930.7 402.993 929.54 401.701 927.536 401.701C926.121 401.701 925.146 402.334 924.636 403.318H924.601V401.859H923.159V411ZM938.716 408.381C938.461 409.242 937.608 409.831 936.448 409.831C934.805 409.831 933.776 408.68 933.776 406.931V406.843H940.333V406.263C940.333 403.494 938.812 401.701 936.343 401.701C933.82 401.701 932.203 403.626 932.203 406.465C932.203 409.339 933.794 411.158 936.413 411.158C938.408 411.158 939.955 409.98 940.219 408.381H938.716ZM936.316 403.028C937.758 403.028 938.716 404.118 938.751 405.647H933.785C933.882 404.127 934.884 403.028 936.316 403.028ZM947.628 406.57V405.146H941.862V406.57H947.628ZM949.438 404.382C949.438 405.7 950.273 406.5 951.996 406.913L953.446 407.265C954.492 407.52 954.853 407.897 954.853 408.557C954.853 409.383 954.088 409.91 952.849 409.91C951.609 409.91 950.906 409.409 950.722 408.363H949.192C949.368 410.077 950.704 411.158 952.849 411.158C954.888 411.158 956.391 410.033 956.391 408.442C956.391 407.133 955.723 406.412 953.877 405.964L952.427 405.612C951.407 405.366 950.941 404.936 950.941 404.303C950.941 403.503 951.68 402.949 952.796 402.949C953.921 402.949 954.624 403.538 954.738 404.496H956.197C956.136 402.879 954.8 401.701 952.796 401.701C950.818 401.701 949.438 402.817 949.438 404.382ZM958.474 399.653V401.859H957.111V403.116H958.474V408.627C958.474 410.385 959.124 411.07 960.803 411.07C961.163 411.07 961.585 411.044 961.77 411V409.717C961.664 409.734 961.312 409.761 961.137 409.761C960.354 409.761 960.003 409.383 960.003 408.548V403.116H961.778V401.859H960.003V399.653H958.474ZM966.938 411.158C969.46 411.158 971.165 409.339 971.165 406.43C971.165 403.512 969.46 401.701 966.938 401.701C964.406 401.701 962.701 403.512 962.701 406.43C962.701 409.339 964.406 411.158 966.938 411.158ZM966.938 409.813C965.32 409.813 964.257 408.583 964.257 406.43C964.257 404.276 965.32 403.046 966.938 403.046C968.555 403.046 969.609 404.276 969.609 406.43C969.609 408.583 968.555 409.813 966.938 409.813ZM977.15 401.701C975.823 401.701 974.76 402.378 974.197 403.406H974.162V401.859H972.712V414.05H974.241V409.515H974.276C974.821 410.517 975.876 411.158 977.186 411.158C979.488 411.158 981.062 409.295 981.062 406.43C981.062 403.564 979.479 401.701 977.15 401.701ZM976.852 409.813C975.287 409.813 974.232 408.469 974.232 406.43C974.232 404.399 975.287 403.046 976.852 403.046C978.478 403.046 979.497 404.364 979.497 406.43C979.497 408.504 978.478 409.813 976.852 409.813ZM986.3 411H987.829V405.27C987.829 404.004 988.708 403.055 989.921 403.055C991.055 403.055 991.793 403.775 991.793 404.874V411H993.322V405.19C993.322 403.951 994.175 403.055 995.388 403.055C996.592 403.055 997.286 403.793 997.286 405.041V411H998.815V404.689C998.815 402.879 997.646 401.701 995.836 401.701C994.553 401.701 993.48 402.352 992.971 403.441H992.936C992.54 402.334 991.617 401.701 990.369 401.701C989.139 401.701 988.207 402.352 987.776 403.318H987.741V401.859H986.3V411ZM1003.44 411.158C1004.67 411.158 1005.83 410.473 1006.37 409.427H1006.41V411H1007.86V404.681C1007.86 402.861 1006.51 401.701 1004.36 401.701C1002.2 401.701 1000.85 402.914 1000.74 404.496H1002.22C1002.41 403.6 1003.15 403.046 1004.33 403.046C1005.59 403.046 1006.33 403.714 1006.33 404.83V405.595L1003.71 405.744C1001.6 405.867 1000.4 406.852 1000.4 408.416C1000.4 410.06 1001.62 411.158 1003.44 411.158ZM1003.78 409.857C1002.68 409.857 1001.95 409.286 1001.95 408.416C1001.95 407.555 1002.66 407.01 1003.89 406.931L1006.33 406.781V407.528C1006.33 408.847 1005.22 409.857 1003.78 409.857ZM1009.8 411H1011.33V405.621C1011.33 404.074 1012.27 403.055 1013.71 403.055C1015.12 403.055 1015.81 403.863 1015.81 405.34V411H1017.34V405.067C1017.34 402.993 1016.18 401.701 1014.18 401.701C1012.76 401.701 1011.79 402.334 1011.28 403.318H1011.24V401.859H1009.8V411ZM1021.97 411.158C1023.2 411.158 1024.36 410.473 1024.9 409.427H1024.94V411H1026.39V404.681C1026.39 402.861 1025.03 401.701 1022.89 401.701C1020.73 401.701 1019.37 402.914 1019.27 404.496H1020.74C1020.94 403.6 1021.68 403.046 1022.85 403.046C1024.12 403.046 1024.86 403.714 1024.86 404.83V405.595L1022.24 405.744C1020.13 405.867 1018.92 406.852 1018.92 408.416C1018.92 410.06 1020.15 411.158 1021.97 411.158ZM1022.31 409.857C1021.21 409.857 1020.48 409.286 1020.48 408.416C1020.48 407.555 1021.18 407.01 1022.41 406.931L1024.86 406.781V407.528C1024.86 408.847 1023.75 409.857 1022.31 409.857ZM1032.1 414.445C1034.62 414.445 1036.23 412.995 1036.23 410.815V401.859H1034.77V403.397H1034.75C1034.14 402.334 1033.07 401.701 1031.77 401.701C1029.41 401.701 1027.88 403.529 1027.88 406.395C1027.88 409.233 1029.41 411.07 1031.74 411.07C1033.02 411.07 1034.1 410.42 1034.67 409.427H1034.7V410.868C1034.7 412.23 1033.74 413.145 1032.16 413.145C1031.02 413.145 1030.11 412.591 1029.81 411.756H1028.24C1028.5 413.312 1030.09 414.445 1032.1 414.445ZM1032.05 409.726C1030.47 409.726 1029.45 408.442 1029.45 406.395C1029.45 404.347 1030.47 403.046 1032.05 403.046C1033.64 403.046 1034.7 404.382 1034.7 406.395C1034.7 408.407 1033.64 409.726 1032.05 409.726ZM1044.29 408.381C1044.04 409.242 1043.18 409.831 1042.02 409.831C1040.38 409.831 1039.35 408.68 1039.35 406.931V406.843H1045.91V406.263C1045.91 403.494 1044.39 401.701 1041.92 401.701C1039.39 401.701 1037.78 403.626 1037.78 406.465C1037.78 409.339 1039.37 411.158 1041.99 411.158C1043.98 411.158 1045.53 409.98 1045.79 408.381H1044.29ZM1041.89 403.028C1043.33 403.028 1044.29 404.118 1044.33 405.647H1039.36C1039.46 404.127 1040.46 403.028 1041.89 403.028ZM1047.45 411H1048.98V405.27C1048.98 404.004 1049.86 403.055 1051.08 403.055C1052.21 403.055 1052.95 403.775 1052.95 404.874V411H1054.48V405.19C1054.48 403.951 1055.33 403.055 1056.54 403.055C1057.75 403.055 1058.44 403.793 1058.44 405.041V411H1059.97V404.689C1059.97 402.879 1058.8 401.701 1056.99 401.701C1055.71 401.701 1054.63 402.352 1054.12 403.441H1054.09C1053.69 402.334 1052.77 401.701 1051.52 401.701C1050.29 401.701 1049.36 402.352 1048.93 403.318H1048.9V401.859H1047.45V411ZM1067.99 408.381C1067.73 409.242 1066.88 409.831 1065.72 409.831C1064.07 409.831 1063.05 408.68 1063.05 406.931V406.843H1069.6V406.263C1069.6 403.494 1068.08 401.701 1065.61 401.701C1063.09 401.701 1061.47 403.626 1061.47 406.465C1061.47 409.339 1063.06 411.158 1065.68 411.158C1067.68 411.158 1069.22 409.98 1069.49 408.381H1067.99ZM1065.59 403.028C1067.03 403.028 1067.99 404.118 1068.02 405.647H1063.05C1063.15 404.127 1064.15 403.028 1065.59 403.028ZM1071.15 411H1072.68V405.621C1072.68 404.074 1073.62 403.055 1075.06 403.055C1076.47 403.055 1077.16 403.863 1077.16 405.34V411H1078.69V405.067C1078.69 402.993 1077.53 401.701 1075.53 401.701C1074.11 401.701 1073.14 402.334 1072.63 403.318H1072.59V401.859H1071.15V411ZM1081.13 399.653V401.859H1079.77V403.116H1081.13V408.627C1081.13 410.385 1081.78 411.07 1083.46 411.07C1083.82 411.07 1084.25 411.044 1084.43 411V409.717C1084.32 409.734 1083.97 409.761 1083.8 409.761C1083.01 409.761 1082.66 409.383 1082.66 408.548V403.116H1084.44V401.859H1082.66V399.653H1081.13Z" fill="white"/>
<defs>
<filter id="filter0_d" x="208" y="420" width="360" height="249" filterUnits="userSpaceOnUse" color-interpolation-filters="sRGB">
<feFlood flood-opacity="0" result="BackgroundImageFix"/>
<feColorMatrix in="SourceAlpha" type="matrix" values="0 0 0 0 0 0 0 0 0 0 0 0 0 0 0 0 0 0 127 0"/>
<feMorphology radius="16" operator="erode" in="SourceAlpha" result="effect1_dropShadow"/>
<feOffset dy="24"/>
<feGaussianBlur stdDeviation="16"/>
<feColorMatrix type="matrix" values="0 0 0 0 0.600374 0 0 0 0 0.668789 0 0 0 0 0.737204 0 0 0 0.5 0"/>
<feBlend mode="normal" in2="BackgroundImageFix" result="effect1_dropShadow"/>
<feBlend mode="normal" in="SourceGraphic" in2="effect1_dropShadow" result="shape"/>
</filter>
<filter id="filter1_d" x="529" y="155" width="360" height="249" filterUnits="userSpaceOnUse" color-interpolation-filters="sRGB">
<feFlood flood-opacity="0" result="BackgroundImageFix"/>
<feColorMatrix in="SourceAlpha" type="matrix" values="0 0 0 0 0 0 0 0 0 0 0 0 0 0 0 0 0 0 127 0"/>
<feMorphology radius="16" operator="erode" in="SourceAlpha" result="effect1_dropShadow"/>
<feOffset dy="24"/>
<feGaussianBlur stdDeviation="16"/>
<feColorMatrix type="matrix" values="0 0 0 0 0.600374 0 0 0 0 0.668789 0 0 0 0 0.737204 0 0 0 0.5 0"/>
<feBlend mode="normal" in2="BackgroundImageFix" result="effect1_dropShadow"/>
<feBlend mode="normal" in="SourceGraphic" in2="effect1_dropShadow" result="shape"/>
</filter>
<filter id="filter2_d" x="872" y="374" width="360" height="249" filterUnits="userSpaceOnUse" color-interpolation-filters="sRGB">
<feFlood flood-opacity="0" result="BackgroundImageFix"/>
<feColorMatrix in="SourceAlpha" type="matrix" values="0 0 0 0 0 0 0 0 0 0 0 0 0 0 0 0 0 0 127 0"/>
<feMorphology radius="16" operator="erode" in="SourceAlpha" result="effect1_dropShadow"/>
<feOffset dy="24"/>
<feGaussianBlur stdDeviation="16"/>
<feColorMatrix type="matrix" values="0 0 0 0 0.600374 0 0 0 0 0.668789 0 0 0 0 0.737204 0 0 0 0.5 0"/>
<feBlend mode="normal" in2="BackgroundImageFix" result="effect1_dropShadow"/>
<feBlend mode="normal" in="SourceGraphic" in2="effect1_dropShadow" result="shape"/>
</filter>
</defs>
</svg>
