<svg width="28" height="28" viewBox="0 0 28 28" fill="none" xmlns="http://www.w3.org/2000/svg">
<path fill-rule="evenodd" clip-rule="evenodd" d="M5 0C2.23858 0 0 2.23858 0 5V23C0 25.7614 2.23858 28 5 28H23C25.7614 28 28 25.7614 28 23V5C28 2.23858 25.7614 0 23 0H5ZM5.74205 10.078V23H9.69405V10.078H5.74205ZM5.58605 5.24201C5.46472 5.51934 5.40405 5.81401 5.40405 6.12601C5.40405 6.43801 5.46472 6.74134 5.58605 7.03601C5.70739 7.31334 5.87205 7.55601 6.08005 7.76401C6.28805 7.97201 6.53072 8.13668 6.80805 8.25801C7.08539 8.37935 7.38005 8.44001 7.69205 8.44001C8.35072 8.44001 8.90539 8.21468 9.35605 7.76401C9.80672 7.31334 10.0321 6.76734 10.0321 6.12601C10.0321 5.48468 9.80672 4.93868 9.35605 4.48801C8.90539 4.03735 8.35072 3.81201 7.69205 3.81201C7.38005 3.81201 7.08539 3.87268 6.80805 3.99401C6.53072 4.11535 6.28805 4.28001 6.08005 4.48801C5.87205 4.69601 5.70739 4.94734 5.58605 5.24201ZM11.7261 23H15.6781V15.59C15.6781 14.9313 15.8688 14.394 16.2501 13.978C16.6314 13.5447 17.1514 13.328 17.8101 13.328C18.5381 13.328 19.0668 13.5447 19.3961 13.978C19.7428 14.394 19.9161 14.9227 19.9161 15.564V23H23.8681V14.888C23.8681 14.1773 23.7728 13.51 23.5821 12.886C23.4088 12.262 23.1228 11.716 22.7241 11.248C22.3428 10.78 21.8574 10.416 21.2681 10.156C20.6788 9.87868 19.9768 9.74001 19.1621 9.74001C18.8328 9.74001 18.4861 9.78334 18.1221 9.87001C17.7754 9.93934 17.4374 10.052 17.1081 10.208C16.7961 10.3467 16.5014 10.5287 16.2241 10.754C15.9468 10.9793 15.7214 11.248 15.5481 11.56V10.078H11.7261V23Z" fill="#C4C4C4"/>
</svg>
